<svg xmlns="http://www.w3.org/2000/svg" xmlns:xlink="http://www.w3.org/1999/xlink" version="1.1" class="marks" width="583" height="237" viewBox="0 0 583 237"><rect width="583" height="237" fill="white"/><g fill="none" stroke-miterlimit="10" transform="translate(82,24)"><g class="mark-group role-frame root" role="graphics-object" aria-roledescription="group mark container"><g transform="translate(0,0)"><path class="background" aria-hidden="true" d="M0.5,0.5h400v140h-400Z" stroke="#ddd"/><g><g class="mark-group role-axis" role="graphics-symbol" aria-roledescription="axis" aria-label="X-axis for a linear scale with values from 0.0 to 1.0"><g transform="translate(0.5,140.5)"><path class="background" aria-hidden="true" d="M0,0h0v0h0Z" pointer-events="none"/><g><g class="mark-rule role-axis-grid" pointer-events="none"><line transform="translate(0,0)" x2="0" y2="-140" stroke="#ddd" stroke-width="1" opacity="1"/><line transform="translate(40,0)" x2="0" y2="-140" stroke="#ddd" stroke-width="1" opacity="1"/><line transform="translate(80,0)" x2="0" y2="-140" stroke="#ddd" stroke-width="1" opacity="1"/><line transform="translate(120,0)" x2="0" y2="-140" stroke="#ddd" stroke-width="1" opacity="1"/><line transform="translate(160,0)" x2="0" y2="-140" stroke="#ddd" stroke-width="1" opacity="1"/><line transform="translate(200,0)" x2="0" y2="-140" stroke="#ddd" stroke-width="1" opacity="1"/><line transform="translate(240,0)" x2="0" y2="-140" stroke="#ddd" stroke-width="1" opacity="1"/><line transform="translate(280,0)" x2="0" y2="-140" stroke="#ddd" stroke-width="1" opacity="1"/><line transform="translate(320,0)" x2="0" y2="-140" stroke="#ddd" stroke-width="1" opacity="1"/><line transform="translate(360,0)" x2="0" y2="-140" stroke="#ddd" stroke-width="1" opacity="1"/><line transform="translate(400,0)" x2="0" y2="-140" stroke="#ddd" stroke-width="1" opacity="1"/></g></g><path class="foreground" aria-hidden="true" d="" pointer-events="none" display="none"/></g></g><g class="mark-group role-axis" role="graphics-symbol" aria-roledescription="axis" aria-label="X-axis titled 'ROC-AUC' for a linear scale with values from 0.0 to 1.0"><g transform="translate(0.5,140.5)"><path class="background" aria-hidden="true" d="M0,0h0v0h0Z" pointer-events="none"/><g><g class="mark-rule role-axis-tick" pointer-events="none"><line transform="translate(0,0)" x2="0" y2="5" stroke="#888" stroke-width="1" opacity="1"/><line transform="translate(40,0)" x2="0" y2="5" stroke="#888" stroke-width="1" opacity="1"/><line transform="translate(80,0)" x2="0" y2="5" stroke="#888" stroke-width="1" opacity="1"/><line transform="translate(120,0)" x2="0" y2="5" stroke="#888" stroke-width="1" opacity="1"/><line transform="translate(160,0)" x2="0" y2="5" stroke="#888" stroke-width="1" opacity="1"/><line transform="translate(200,0)" x2="0" y2="5" stroke="#888" stroke-width="1" opacity="1"/><line transform="translate(240,0)" x2="0" y2="5" stroke="#888" stroke-width="1" opacity="1"/><line transform="translate(280,0)" x2="0" y2="5" stroke="#888" stroke-width="1" opacity="1"/><line transform="translate(320,0)" x2="0" y2="5" stroke="#888" stroke-width="1" opacity="1"/><line transform="translate(360,0)" x2="0" y2="5" stroke="#888" stroke-width="1" opacity="1"/><line transform="translate(400,0)" x2="0" y2="5" stroke="#888" stroke-width="1" opacity="1"/></g><g class="mark-text role-axis-label" pointer-events="none"><text text-anchor="start" transform="translate(0,15)" font-family="sans-serif" font-size="10px" fill="#000" opacity="1">0.0</text><text text-anchor="middle" transform="translate(40,15)" font-family="sans-serif" font-size="10px" fill="#000" opacity="1">0.1</text><text text-anchor="middle" transform="translate(80,15)" font-family="sans-serif" font-size="10px" fill="#000" opacity="1">0.2</text><text text-anchor="middle" transform="translate(120,15)" font-family="sans-serif" font-size="10px" fill="#000" opacity="1">0.3</text><text text-anchor="middle" transform="translate(160,15)" font-family="sans-serif" font-size="10px" fill="#000" opacity="1">0.4</text><text text-anchor="middle" transform="translate(200,15)" font-family="sans-serif" font-size="10px" fill="#000" opacity="1">0.5</text><text text-anchor="middle" transform="translate(240,15)" font-family="sans-serif" font-size="10px" fill="#000" opacity="1">0.6</text><text text-anchor="middle" transform="translate(280,15)" font-family="sans-serif" font-size="10px" fill="#000" opacity="1">0.7</text><text text-anchor="middle" transform="translate(320,15)" font-family="sans-serif" font-size="10px" fill="#000" opacity="1">0.8</text><text text-anchor="middle" transform="translate(360,15)" font-family="sans-serif" font-size="10px" fill="#000" opacity="1">0.9</text><text text-anchor="end" transform="translate(400,15)" font-family="sans-serif" font-size="10px" fill="#000" opacity="1">1.0</text></g><g class="mark-rule role-axis-domain" pointer-events="none"><line transform="translate(0,0)" x2="400" y2="0" stroke="#888" stroke-width="1" opacity="1"/></g><g class="mark-text role-axis-title" pointer-events="none"><text text-anchor="middle" transform="translate(200,30)" font-family="sans-serif" font-size="11px" font-weight="bold" fill="#000" opacity="1">ROC-AUC</text></g></g><path class="foreground" aria-hidden="true" d="" pointer-events="none" display="none"/></g></g><g class="mark-group role-axis" role="graphics-symbol" aria-roledescription="axis" aria-label="Y-axis titled 'ID' for a discrete scale with 7 values: GSE120862, GSE140089, GSE144304, GSE178262, GSE198266, GSE221210, GSE99963"><g transform="translate(0.5,0.5)"><path class="background" aria-hidden="true" d="M0,0h0v0h0Z" pointer-events="none"/><g><g class="mark-rule role-axis-tick" pointer-events="none"><line transform="translate(0,10)" x2="-5" y2="0" stroke="#888" stroke-width="1" opacity="1"/><line transform="translate(0,30)" x2="-5" y2="0" stroke="#888" stroke-width="1" opacity="1"/><line transform="translate(0,50)" x2="-5" y2="0" stroke="#888" stroke-width="1" opacity="1"/><line transform="translate(0,70)" x2="-5" y2="0" stroke="#888" stroke-width="1" opacity="1"/><line transform="translate(0,90)" x2="-5" y2="0" stroke="#888" stroke-width="1" opacity="1"/><line transform="translate(0,110)" x2="-5" y2="0" stroke="#888" stroke-width="1" opacity="1"/><line transform="translate(0,130)" x2="-5" y2="0" stroke="#888" stroke-width="1" opacity="1"/></g><g class="mark-text role-axis-label" pointer-events="none"><text text-anchor="end" transform="translate(-7,13)" font-family="sans-serif" font-size="10px" fill="#000" opacity="1">GSE120862</text><text text-anchor="end" transform="translate(-7,33)" font-family="sans-serif" font-size="10px" fill="#000" opacity="1">GSE140089</text><text text-anchor="end" transform="translate(-7,53)" font-family="sans-serif" font-size="10px" fill="#000" opacity="1">GSE144304</text><text text-anchor="end" transform="translate(-7,73)" font-family="sans-serif" font-size="10px" fill="#000" opacity="1">GSE178262</text><text text-anchor="end" transform="translate(-7,93)" font-family="sans-serif" font-size="10px" fill="#000" opacity="1">GSE198266</text><text text-anchor="end" transform="translate(-7,113)" font-family="sans-serif" font-size="10px" fill="#000" opacity="1">GSE221210</text><text text-anchor="end" transform="translate(-7,133)" font-family="sans-serif" font-size="10px" fill="#000" opacity="1">GSE99963</text></g><g class="mark-rule role-axis-domain" pointer-events="none"><line transform="translate(0,0)" x2="0" y2="140" stroke="#888" stroke-width="1" opacity="1"/></g><g class="mark-text role-axis-title" pointer-events="none"><text text-anchor="middle" transform="translate(-65.4873046875,70) rotate(-90) translate(0,-2)" font-family="sans-serif" font-size="11px" font-weight="bold" fill="#000" opacity="1">ID</text></g></g><path class="foreground" aria-hidden="true" d="" pointer-events="none" display="none"/></g></g><g class="mark-symbol role-mark marks" role="graphics-symbol" aria-roledescription="symbol mark container"><path transform="translate(32,10)" d="M11.180339887498949,0A11.180339887498949,11.180339887498949,0,1,1,-11.180339887498949,0A11.180339887498949,11.180339887498949,0,1,1,11.180339887498949,0" fill="#4c78a8" stroke-width="2" opacity="0.8"/><path transform="translate(68,30)" d="M6.413887689752212,0A6.413887689752212,6.413887689752212,0,1,1,-6.413887689752212,0A6.413887689752212,6.413887689752212,0,1,1,6.413887689752212,0" fill="#4c78a8" stroke-width="2" opacity="0.8"/><path transform="translate(312,90)" d="M5.2759152352547085,0A5.2759152352547085,5.2759152352547085,0,1,1,-5.2759152352547085,0A5.2759152352547085,5.2759152352547085,0,1,1,5.2759152352547085,0" fill="#f58518" stroke-width="2" opacity="0.3"/><path transform="translate(324,70)" d="M5.642134811637559,0A5.642134811637559,5.642134811637559,0,1,1,-5.642134811637559,0A5.642134811637559,5.642134811637559,0,1,1,5.642134811637559,0" fill="#f58518" stroke-width="2" opacity="0.3"/><path transform="translate(344,50)" d="M7.96298970785004,0A7.96298970785004,7.96298970785004,0,1,1,-7.96298970785004,0A7.96298970785004,7.96298970785004,0,1,1,7.96298970785004,0" fill="#f58518" stroke-width="2" opacity="0.8"/><path transform="translate(304,110)" d="M6.6192979738931665,0A6.6192979738931665,6.6192979738931665,0,1,1,-6.6192979738931665,0A6.6192979738931665,6.6192979738931665,0,1,1,6.6192979738931665,0" fill="#f58518" stroke-width="2" opacity="0.8"/><path transform="translate(104,110)" d="M6.353754388496097,0A6.353754388496097,6.353754388496097,0,1,1,-6.353754388496097,0A6.353754388496097,6.353754388496097,0,1,1,6.353754388496097,0" fill="#4c78a8" stroke-width="2" opacity="0.8"/><path transform="translate(364,130)" d="M7.485551976510121,0A7.485551976510121,7.485551976510121,0,1,1,-7.485551976510121,0A7.485551976510121,7.485551976510121,0,1,1,7.485551976510121,0" fill="#f58518" stroke-width="2" opacity="0.8"/></g><g class="mark-group role-legend" role="graphics-symbol" aria-roledescription="legend" aria-label="Symbol legend titled 'Exercise Type' for fill color with 2 values: Immediate, Training"><g transform="translate(418,0)"><path class="background" aria-hidden="true" d="M0,0h74v40h-74Z" pointer-events="none"/><g><g class="mark-group role-legend-entry"><g transform="translate(0,16)"><path class="background" aria-hidden="true" d="M0,0h0v0h0Z" pointer-events="none"/><g><g class="mark-group role-scope" role="graphics-object" aria-roledescription="group mark container"><g transform="translate(0,0)"><path class="background" aria-hidden="true" d="M0,0h62.6845703125v11h-62.6845703125Z" pointer-events="none" opacity="1"/><g><g class="mark-symbol role-legend-symbol" pointer-events="none"><path transform="translate(6,6)" d="M5,0A5,5,0,1,1,-5,0A5,5,0,1,1,5,0" fill="#4c78a8" stroke-width="1.5" opacity="0.7"/></g><g class="mark-text role-legend-label" pointer-events="none"><text text-anchor="start" transform="translate(16,9)" font-family="sans-serif" font-size="10px" fill="#000" opacity="1">Immediate</text></g></g><path class="foreground" aria-hidden="true" d="" pointer-events="none" display="none"/></g><g transform="translate(0,13)"><path class="background" aria-hidden="true" d="M0,0h62.6845703125v11h-62.6845703125Z" pointer-events="none" opacity="1"/><g><g class="mark-symbol role-legend-symbol" pointer-events="none"><path transform="translate(6,6)" d="M5,0A5,5,0,1,1,-5,0A5,5,0,1,1,5,0" fill="#f58518" stroke-width="1.5" opacity="0.7"/></g><g class="mark-text role-legend-label" pointer-events="none"><text text-anchor="start" transform="translate(16,9)" font-family="sans-serif" font-size="10px" fill="#000" opacity="1">Training</text></g></g><path class="foreground" aria-hidden="true" d="" pointer-events="none" display="none"/></g></g></g><path class="foreground" aria-hidden="true" d="" pointer-events="none" display="none"/></g></g><g class="mark-text role-legend-title" pointer-events="none"><text text-anchor="start" transform="translate(0,9)" font-family="sans-serif" font-size="11px" font-weight="bold" fill="#000" opacity="1">Exercise Type</text></g></g><path class="foreground" aria-hidden="true" d="" pointer-events="none" display="none"/></g></g><g class="mark-group role-legend" role="graphics-symbol" aria-roledescription="legend" aria-label="Symbol legend titled '-Log10 P value' for size with values from 0 to 13"><g transform="translate(418,48)"><path class="background" aria-hidden="true" d="M0,0h78v107h-78Z" pointer-events="none"/><g><g class="mark-group role-legend-entry"><g transform="translate(0,16)"><path class="background" aria-hidden="true" d="M0,0h0v0h0Z" pointer-events="none"/><g><g class="mark-group role-scope" role="graphics-object" aria-roledescription="group mark container"><g transform="translate(0,0)"><path class="background" aria-hidden="true" d="M0,0h63.3642578125v12.5h-63.3642578125Z" pointer-events="none" opacity="1"/><g><g class="mark-symbol role-legend-symbol" pointer-events="none"><path transform="translate(13,6)" d="M5,0A5,5,0,1,1,-5,0A5,5,0,1,1,5,0" fill="black" fill-opacity="0.7" stroke-width="1.5" opacity="0.7"/></g><g class="mark-text role-legend-label" pointer-events="none"><text text-anchor="start" transform="translate(30,9)" font-family="sans-serif" font-size="10px" fill="#000" opacity="1">0 – 5</text></g></g><path class="foreground" aria-hidden="true" d="" pointer-events="none" display="none"/></g><g transform="translate(0,16)"><path class="background" aria-hidden="true" d="M0,0h63.3642578125v18.499902995376573h-63.3642578125Z" pointer-events="none" opacity="1"/><g><g class="mark-symbol role-legend-symbol" pointer-events="none"><path transform="translate(13,9)" d="M7.999902995376573,0A7.999902995376573,7.999902995376573,0,1,1,-7.999902995376573,0A7.999902995376573,7.999902995376573,0,1,1,7.999902995376573,0" fill="black" fill-opacity="0.7" stroke-width="1.5" opacity="0.7"/></g><g class="mark-text role-legend-label" pointer-events="none"><text text-anchor="start" transform="translate(30,12)" font-family="sans-serif" font-size="10px" fill="#000" opacity="1">5 – 10</text></g></g><path class="foreground" aria-hidden="true" d="" pointer-events="none" display="none"/></g><g transform="translate(0,38)"><path class="background" aria-hidden="true" d="M0,0h63.3642578125v22.648738634474242h-63.3642578125Z" pointer-events="none" opacity="1"/><g><g class="mark-symbol role-legend-symbol" pointer-events="none"><path transform="translate(13,11)" d="M10.148738634474244,0A10.148738634474244,10.148738634474244,0,1,1,-10.148738634474244,0A10.148738634474244,10.148738634474244,0,1,1,10.148738634474244,0" fill="black" fill-opacity="0.7" stroke-width="1.5" opacity="0.7"/></g><g class="mark-text role-legend-label" pointer-events="none"><text text-anchor="start" transform="translate(30,14)" font-family="sans-serif" font-size="10px" fill="#000" opacity="1">10 – 15</text></g></g><path class="foreground" aria-hidden="true" d="" pointer-events="none" display="none"/></g><g transform="translate(0,64)"><path class="background" aria-hidden="true" d="M0,0h63.3642578125v26.41617991666395h-63.3642578125Z" pointer-events="none" opacity="1"/><g><g class="mark-symbol role-legend-symbol" pointer-events="none"><path transform="translate(13,13)" d="M11.916179916663946,0A11.916179916663946,11.916179916663946,0,1,1,-11.916179916663946,0A11.916179916663946,11.916179916663946,0,1,1,11.916179916663946,0" fill="black" fill-opacity="0.7" stroke-width="1.5" opacity="0.7"/></g><g class="mark-text role-legend-label" pointer-events="none"><text text-anchor="start" transform="translate(30,16)" font-family="sans-serif" font-size="10px" fill="#000" opacity="1">15 – 20</text></g></g><path class="foreground" aria-hidden="true" d="" pointer-events="none" display="none"/></g></g></g><path class="foreground" aria-hidden="true" d="" pointer-events="none" display="none"/></g></g><g class="mark-text role-legend-title" pointer-events="none"><text text-anchor="start" transform="translate(0,9)" font-family="sans-serif" font-size="11px" font-weight="bold" fill="#000" opacity="1">-Log10 P value</text></g></g><path class="foreground" aria-hidden="true" d="" pointer-events="none" display="none"/></g></g><g class="mark-group role-legend" role="graphics-symbol" aria-roledescription="legend" aria-label="Symbol legend titled 'Significant' for opacity with 2 values: false, true"><g transform="translate(418,163)"><path class="background" aria-hidden="true" d="M0,0h57v45h-57Z" pointer-events="none"/><g><g class="mark-group role-legend-entry"><g transform="translate(0,16)"><path class="background" aria-hidden="true" d="M0,0h0v0h0Z" pointer-events="none"/><g><g class="mark-group role-scope" role="graphics-object" aria-roledescription="group mark container"><g transform="translate(0,0)"><path class="background" aria-hidden="true" d="M0,0h37.123046875v12.5h-37.123046875Z" pointer-events="none" opacity="1"/><g><g class="mark-symbol role-legend-symbol" pointer-events="none"><path transform="translate(6,6)" d="M5,0A5,5,0,1,1,-5,0A5,5,0,1,1,5,0" fill="black" fill-opacity="0.7" stroke-width="1.5" opacity="0.3"/></g><g class="mark-text role-legend-label" pointer-events="none"><text text-anchor="start" transform="translate(16,9)" font-family="sans-serif" font-size="10px" fill="#000" opacity="1">false</text></g></g><path class="foreground" aria-hidden="true" d="" pointer-events="none" display="none"/></g><g transform="translate(0,16)"><path class="background" aria-hidden="true" d="M0,0h37.123046875v12.5h-37.123046875Z" pointer-events="none" opacity="1"/><g><g class="mark-symbol role-legend-symbol" pointer-events="none"><path transform="translate(6,6)" d="M5,0A5,5,0,1,1,-5,0A5,5,0,1,1,5,0" fill="black" fill-opacity="0.7" stroke-width="1.5" opacity="0.8"/></g><g class="mark-text role-legend-label" pointer-events="none"><text text-anchor="start" transform="translate(16,9)" font-family="sans-serif" font-size="10px" fill="#000" opacity="1">true</text></g></g><path class="foreground" aria-hidden="true" d="" pointer-events="none" display="none"/></g></g></g><path class="foreground" aria-hidden="true" d="" pointer-events="none" display="none"/></g></g><g class="mark-text role-legend-title" pointer-events="none"><text text-anchor="start" transform="translate(0,9)" font-family="sans-serif" font-size="11px" font-weight="bold" fill="#000" opacity="1">Significant</text></g></g><path class="foreground" aria-hidden="true" d="" pointer-events="none" display="none"/></g></g><g class="mark-group role-title"><g transform="translate(200,-18.18033988749895)"><path class="background" aria-hidden="true" d="M0,0h0v0h0Z" pointer-events="none"/><g><g class="mark-text role-title-text" role="graphics-symbol" aria-roledescription="title" aria-label="Title text 'RNA-Seq'" pointer-events="none"><text text-anchor="middle" transform="translate(0,10)" font-family="sans-serif" font-size="13px" font-weight="bold" fill="#000" opacity="1">RNA-Seq</text></g></g><path class="foreground" aria-hidden="true" d="" pointer-events="none" display="none"/></g></g></g><path class="foreground" aria-hidden="true" d="" display="none"/></g></g></g></svg>