<svg xmlns="http://www.w3.org/2000/svg" xmlns:xlink="http://www.w3.org/1999/xlink" version="1.1" class="marks" width="583" height="400" viewBox="0 0 583 400"><rect width="583" height="400" fill="white"/><g fill="none" stroke-miterlimit="10" transform="translate(82,23)"><g class="mark-group role-frame root" role="graphics-object" aria-roledescription="group mark container"><g transform="translate(0,0)"><path class="background" aria-hidden="true" d="M0.5,0.5h400v340h-400Z" stroke="#ddd"/><g><g class="mark-group role-axis" role="graphics-symbol" aria-roledescription="axis" aria-label="X-axis for a linear scale with values from 0.0 to 1.0"><g transform="translate(0.5,340.5)"><path class="background" aria-hidden="true" d="M0,0h0v0h0Z" pointer-events="none"/><g><g class="mark-rule role-axis-grid" pointer-events="none"><line transform="translate(0,0)" x2="0" y2="-340" stroke="#ddd" stroke-width="1" opacity="1"/><line transform="translate(40,0)" x2="0" y2="-340" stroke="#ddd" stroke-width="1" opacity="1"/><line transform="translate(80,0)" x2="0" y2="-340" stroke="#ddd" stroke-width="1" opacity="1"/><line transform="translate(120,0)" x2="0" y2="-340" stroke="#ddd" stroke-width="1" opacity="1"/><line transform="translate(160,0)" x2="0" y2="-340" stroke="#ddd" stroke-width="1" opacity="1"/><line transform="translate(200,0)" x2="0" y2="-340" stroke="#ddd" stroke-width="1" opacity="1"/><line transform="translate(240,0)" x2="0" y2="-340" stroke="#ddd" stroke-width="1" opacity="1"/><line transform="translate(280,0)" x2="0" y2="-340" stroke="#ddd" stroke-width="1" opacity="1"/><line transform="translate(320,0)" x2="0" y2="-340" stroke="#ddd" stroke-width="1" opacity="1"/><line transform="translate(360,0)" x2="0" y2="-340" stroke="#ddd" stroke-width="1" opacity="1"/><line transform="translate(400,0)" x2="0" y2="-340" stroke="#ddd" stroke-width="1" opacity="1"/></g></g><path class="foreground" aria-hidden="true" d="" pointer-events="none" display="none"/></g></g><g class="mark-group role-axis" role="graphics-symbol" aria-roledescription="axis" aria-label="X-axis titled 'ROC-AUC' for a linear scale with values from 0.0 to 1.0"><g transform="translate(0.5,340.5)"><path class="background" aria-hidden="true" d="M0,0h0v0h0Z" pointer-events="none"/><g><g class="mark-rule role-axis-tick" pointer-events="none"><line transform="translate(0,0)" x2="0" y2="5" stroke="#888" stroke-width="1" opacity="1"/><line transform="translate(40,0)" x2="0" y2="5" stroke="#888" stroke-width="1" opacity="1"/><line transform="translate(80,0)" x2="0" y2="5" stroke="#888" stroke-width="1" opacity="1"/><line transform="translate(120,0)" x2="0" y2="5" stroke="#888" stroke-width="1" opacity="1"/><line transform="translate(160,0)" x2="0" y2="5" stroke="#888" stroke-width="1" opacity="1"/><line transform="translate(200,0)" x2="0" y2="5" stroke="#888" stroke-width="1" opacity="1"/><line transform="translate(240,0)" x2="0" y2="5" stroke="#888" stroke-width="1" opacity="1"/><line transform="translate(280,0)" x2="0" y2="5" stroke="#888" stroke-width="1" opacity="1"/><line transform="translate(320,0)" x2="0" y2="5" stroke="#888" stroke-width="1" opacity="1"/><line transform="translate(360,0)" x2="0" y2="5" stroke="#888" stroke-width="1" opacity="1"/><line transform="translate(400,0)" x2="0" y2="5" stroke="#888" stroke-width="1" opacity="1"/></g><g class="mark-text role-axis-label" pointer-events="none"><text text-anchor="start" transform="translate(0,15)" font-family="sans-serif" font-size="10px" fill="#000" opacity="1">0.0</text><text text-anchor="middle" transform="translate(40,15)" font-family="sans-serif" font-size="10px" fill="#000" opacity="1">0.1</text><text text-anchor="middle" transform="translate(80,15)" font-family="sans-serif" font-size="10px" fill="#000" opacity="1">0.2</text><text text-anchor="middle" transform="translate(120,15)" font-family="sans-serif" font-size="10px" fill="#000" opacity="1">0.3</text><text text-anchor="middle" transform="translate(160,15)" font-family="sans-serif" font-size="10px" fill="#000" opacity="1">0.4</text><text text-anchor="middle" transform="translate(200,15)" font-family="sans-serif" font-size="10px" fill="#000" opacity="1">0.5</text><text text-anchor="middle" transform="translate(240,15)" font-family="sans-serif" font-size="10px" fill="#000" opacity="1">0.6</text><text text-anchor="middle" transform="translate(280,15)" font-family="sans-serif" font-size="10px" fill="#000" opacity="1">0.7</text><text text-anchor="middle" transform="translate(320,15)" font-family="sans-serif" font-size="10px" fill="#000" opacity="1">0.8</text><text text-anchor="middle" transform="translate(360,15)" font-family="sans-serif" font-size="10px" fill="#000" opacity="1">0.9</text><text text-anchor="end" transform="translate(400,15)" font-family="sans-serif" font-size="10px" fill="#000" opacity="1">1.0</text></g><g class="mark-rule role-axis-domain" pointer-events="none"><line transform="translate(0,0)" x2="400" y2="0" stroke="#888" stroke-width="1" opacity="1"/></g><g class="mark-text role-axis-title" pointer-events="none"><text text-anchor="middle" transform="translate(200,30)" font-family="sans-serif" font-size="11px" font-weight="bold" fill="#000" opacity="1">ROC-AUC</text></g></g><path class="foreground" aria-hidden="true" d="" pointer-events="none" display="none"/></g></g><g class="mark-group role-axis" role="graphics-symbol" aria-roledescription="axis" aria-label="Y-axis titled 'ID' for a discrete scale with 17 values: GSE117525, GSE126296, GSE139258, GSE140089, GSE144304, ending with GSE8479"><g transform="translate(0.5,0.5)"><path class="background" aria-hidden="true" d="M0,0h0v0h0Z" pointer-events="none"/><g><g class="mark-rule role-axis-tick" pointer-events="none"><line transform="translate(0,10)" x2="-5" y2="0" stroke="#888" stroke-width="1" opacity="1"/><line transform="translate(0,30)" x2="-5" y2="0" stroke="#888" stroke-width="1" opacity="1"/><line transform="translate(0,50)" x2="-5" y2="0" stroke="#888" stroke-width="1" opacity="1"/><line transform="translate(0,70)" x2="-5" y2="0" stroke="#888" stroke-width="1" opacity="1"/><line transform="translate(0,90)" x2="-5" y2="0" stroke="#888" stroke-width="1" opacity="1"/><line transform="translate(0,110)" x2="-5" y2="0" stroke="#888" stroke-width="1" opacity="1"/><line transform="translate(0,130)" x2="-5" y2="0" stroke="#888" stroke-width="1" opacity="1"/><line transform="translate(0,150)" x2="-5" y2="0" stroke="#888" stroke-width="1" opacity="1"/><line transform="translate(0,170)" x2="-5" y2="0" stroke="#888" stroke-width="1" opacity="1"/><line transform="translate(0,190)" x2="-5" y2="0" stroke="#888" stroke-width="1" opacity="1"/><line transform="translate(0,210)" x2="-5" y2="0" stroke="#888" stroke-width="1" opacity="1"/><line transform="translate(0,230)" x2="-5" y2="0" stroke="#888" stroke-width="1" opacity="1"/><line transform="translate(0,250)" x2="-5" y2="0" stroke="#888" stroke-width="1" opacity="1"/><line transform="translate(0,270)" x2="-5" y2="0" stroke="#888" stroke-width="1" opacity="1"/><line transform="translate(0,290)" x2="-5" y2="0" stroke="#888" stroke-width="1" opacity="1"/><line transform="translate(0,310)" x2="-5" y2="0" stroke="#888" stroke-width="1" opacity="1"/><line transform="translate(0,330)" x2="-5" y2="0" stroke="#888" stroke-width="1" opacity="1"/></g><g class="mark-text role-axis-label" pointer-events="none"><text text-anchor="end" transform="translate(-7,13)" font-family="sans-serif" font-size="10px" fill="#000" opacity="1">GSE117525</text><text text-anchor="end" transform="translate(-7,33)" font-family="sans-serif" font-size="10px" fill="#000" opacity="1">GSE126296</text><text text-anchor="end" transform="translate(-7,53)" font-family="sans-serif" font-size="10px" fill="#000" opacity="1">GSE139258</text><text text-anchor="end" transform="translate(-7,73)" font-family="sans-serif" font-size="10px" fill="#000" opacity="1">GSE140089</text><text text-anchor="end" transform="translate(-7,93)" font-family="sans-serif" font-size="10px" fill="#000" opacity="1">GSE144304</text><text text-anchor="end" transform="translate(-7,113)" font-family="sans-serif" font-size="10px" fill="#000" opacity="1">GSE24235</text><text text-anchor="end" transform="translate(-7,133)" font-family="sans-serif" font-size="10px" fill="#000" opacity="1">GSE252357</text><text text-anchor="end" transform="translate(-7,153)" font-family="sans-serif" font-size="10px" fill="#000" opacity="1">GSE28422</text><text text-anchor="end" transform="translate(-7,173)" font-family="sans-serif" font-size="10px" fill="#000" opacity="1">GSE28998</text><text text-anchor="end" transform="translate(-7,193)" font-family="sans-serif" font-size="10px" fill="#000" opacity="1">GSE43219</text><text text-anchor="end" transform="translate(-7,213)" font-family="sans-serif" font-size="10px" fill="#000" opacity="1">GSE44051</text><text text-anchor="end" transform="translate(-7,233)" font-family="sans-serif" font-size="10px" fill="#000" opacity="1">GSE60591</text><text text-anchor="end" transform="translate(-7,253)" font-family="sans-serif" font-size="10px" fill="#000" opacity="1">GSE68585</text><text text-anchor="end" transform="translate(-7,273)" font-family="sans-serif" font-size="10px" fill="#000" opacity="1">GSE72462</text><text text-anchor="end" transform="translate(-7,293)" font-family="sans-serif" font-size="10px" fill="#000" opacity="1">GSE83352</text><text text-anchor="end" transform="translate(-7,313)" font-family="sans-serif" font-size="10px" fill="#000" opacity="1">GSE83578</text><text text-anchor="end" transform="translate(-7,333)" font-family="sans-serif" font-size="10px" fill="#000" opacity="1">GSE8479</text></g><g class="mark-rule role-axis-domain" pointer-events="none"><line transform="translate(0,0)" x2="0" y2="340" stroke="#888" stroke-width="1" opacity="1"/></g><g class="mark-text role-axis-title" pointer-events="none"><text text-anchor="middle" transform="translate(-65.4873046875,170) rotate(-90) translate(0,-2)" font-family="sans-serif" font-size="11px" font-weight="bold" fill="#000" opacity="1">ID</text></g></g><path class="foreground" aria-hidden="true" d="" pointer-events="none" display="none"/></g></g><g class="mark-symbol role-mark marks" role="graphics-symbol" aria-roledescription="symbol mark container"><path transform="translate(156,10)" d="M9.97550127354206,0A9.97550127354206,9.97550127354206,0,1,1,-9.97550127354206,0A9.97550127354206,9.97550127354206,0,1,1,9.97550127354206,0" fill="#f58518" stroke-width="2" opacity="0.3"/><path transform="translate(180,10)" d="M10.845431311872419,0A10.845431311872419,10.845431311872419,0,1,1,-10.845431311872419,0A10.845431311872419,10.845431311872419,0,1,1,10.845431311872419,0" fill="#4c78a8" stroke-width="2" opacity="0.3"/><path transform="translate(124,30)" d="M10.746439601169843,0A10.746439601169843,10.746439601169843,0,1,1,-10.746439601169843,0A10.746439601169843,10.746439601169843,0,1,1,10.746439601169843,0" fill="#f58518" stroke-width="2" opacity="0.3"/><path transform="translate(164,30)" d="M10.940527883159685,0A10.940527883159685,10.940527883159685,0,1,1,-10.940527883159685,0A10.940527883159685,10.940527883159685,0,1,1,10.940527883159685,0" fill="#4c78a8" stroke-width="2" opacity="0.3"/><path transform="translate(100,50)" d="M10.966201675336835,0A10.966201675336835,10.966201675336835,0,1,1,-10.966201675336835,0A10.966201675336835,10.966201675336835,0,1,1,10.966201675336835,0" fill="#f58518" stroke-width="2" opacity="0.3"/><path transform="translate(240,50)" d="M11.104065409940363,0A11.104065409940363,11.104065409940363,0,1,1,-11.104065409940363,0A11.104065409940363,11.104065409940363,0,1,1,11.104065409940363,0" fill="#4c78a8" stroke-width="2" opacity="0.3"/><path transform="translate(76,70)" d="M9.656798280640578,0A9.656798280640578,9.656798280640578,0,1,1,-9.656798280640578,0A9.656798280640578,9.656798280640578,0,1,1,9.656798280640578,0" fill="#f58518" stroke-width="2" opacity="0.8"/><path transform="translate(328,90)" d="M8.583594333663944,0A8.583594333663944,8.583594333663944,0,1,1,-8.583594333663944,0A8.583594333663944,8.583594333663944,0,1,1,8.583594333663944,0" fill="#f58518" stroke-width="2" opacity="0.8"/><path transform="translate(364,90)" d="M6.638258679109358,0A6.638258679109358,6.638258679109358,0,1,1,-6.638258679109358,0A6.638258679109358,6.638258679109358,0,1,1,6.638258679109358,0" fill="#4c78a8" stroke-width="2" opacity="0.8"/><path transform="translate(44,110)" d="M9.83892564480372,0A9.83892564480372,9.83892564480372,0,1,1,-9.83892564480372,0A9.83892564480372,9.83892564480372,0,1,1,9.83892564480372,0" fill="#f58518" stroke-width="2" opacity="0.3"/><path transform="translate(100,110)" d="M10.470996484843827,0A10.470996484843827,10.470996484843827,0,1,1,-10.470996484843827,0A10.470996484843827,10.470996484843827,0,1,1,10.470996484843827,0" fill="#4c78a8" stroke-width="2" opacity="0.3"/><path transform="translate(160,150)" d="M10.295016936725824,0A10.295016936725824,10.295016936725824,0,1,1,-10.295016936725824,0A10.295016936725824,10.295016936725824,0,1,1,10.295016936725824,0" fill="#f58518" stroke-width="2" opacity="0.3"/><path transform="translate(140,150)" d="M9.759816376515184,0A9.759816376515184,9.759816376515184,0,1,1,-9.759816376515184,0A9.759816376515184,9.759816376515184,0,1,1,9.759816376515184,0" fill="#4c78a8" stroke-width="2" opacity="0.3"/><path transform="translate(352,170)" d="M9.961230632301138,0A9.961230632301138,9.961230632301138,0,1,1,-9.961230632301138,0A9.961230632301138,9.961230632301138,0,1,1,9.961230632301138,0" fill="#f58518" stroke-width="2" opacity="0.3"/><path transform="translate(268,170)" d="M10.81240052729838,0A10.81240052729838,10.81240052729838,0,1,1,-10.81240052729838,0A10.81240052729838,10.81240052729838,0,1,1,10.81240052729838,0" fill="#4c78a8" stroke-width="2" opacity="0.3"/><path transform="translate(144,190)" d="M10.939749581198669,0A10.939749581198669,10.939749581198669,0,1,1,-10.939749581198669,0A10.939749581198669,10.939749581198669,0,1,1,10.939749581198669,0" fill="#f58518" stroke-width="2" opacity="0.3"/><path transform="translate(176,190)" d="M10.904065549035039,0A10.904065549035039,10.904065549035039,0,1,1,-10.904065549035039,0A10.904065549035039,10.904065549035039,0,1,1,10.904065549035039,0" fill="#4c78a8" stroke-width="2" opacity="0.3"/><path transform="translate(144,210)" d="M10.75597608857992,0A10.75597608857992,10.75597608857992,0,1,1,-10.75597608857992,0A10.75597608857992,10.75597608857992,0,1,1,10.75597608857992,0" fill="#f58518" stroke-width="2" opacity="0.3"/><path transform="translate(224.00000000000003,210)" d="M11.002771989461088,0A11.002771989461088,11.002771989461088,0,1,1,-11.002771989461088,0A11.002771989461088,11.002771989461088,0,1,1,11.002771989461088,0" fill="#4c78a8" stroke-width="2" opacity="0.3"/><path transform="translate(220.00000000000003,230)" d="M10.912433168531448,0A10.912433168531448,10.912433168531448,0,1,1,-10.912433168531448,0A10.912433168531448,10.912433168531448,0,1,1,10.912433168531448,0" fill="#f58518" stroke-width="2" opacity="0.3"/><path transform="translate(227.99999999999997,230)" d="M10.64551760140753,0A10.64551760140753,10.64551760140753,0,1,1,-10.64551760140753,0A10.64551760140753,10.64551760140753,0,1,1,10.64551760140753,0" fill="#4c78a8" stroke-width="2" opacity="0.3"/><path transform="translate(276,250)" d="M10.840582016071513,0A10.840582016071513,10.840582016071513,0,1,1,-10.840582016071513,0A10.840582016071513,10.840582016071513,0,1,1,10.840582016071513,0" fill="#f58518" stroke-width="2" opacity="0.3"/><path transform="translate(172,130)" d="M10.79220575809057,0A10.79220575809057,10.79220575809057,0,1,1,-10.79220575809057,0A10.79220575809057,10.79220575809057,0,1,1,10.79220575809057,0" fill="#f58518" stroke-width="2" opacity="0.3"/><path transform="translate(340,130)" d="M9.07144626091558,0A9.07144626091558,9.07144626091558,0,1,1,-9.07144626091558,0A9.07144626091558,9.07144626091558,0,1,1,9.07144626091558,0" fill="#4c78a8" stroke-width="2" opacity="0.8"/><path transform="translate(144,130)" d="M10.782310241526869,0A10.782310241526869,10.782310241526869,0,1,1,-10.782310241526869,0A10.782310241526869,10.782310241526869,0,1,1,10.782310241526869,0" fill="#f58518" stroke-width="2" opacity="0.3"/><path transform="translate(0,130)" d="M9.737330999132789,0A9.737330999132789,9.737330999132789,0,1,1,-9.737330999132789,0A9.737330999132789,9.737330999132789,0,1,1,9.737330999132789,0" fill="#4c78a8" stroke-width="2" opacity="0.8"/><path transform="translate(0,270)" d="M10.41196578910005,0A10.41196578910005,10.41196578910005,0,1,1,-10.41196578910005,0A10.41196578910005,10.41196578910005,0,1,1,10.41196578910005,0" fill="#4c78a8" stroke-width="2" opacity="0.3"/><path transform="translate(227.99999999999997,290)" d="M10.825707604248542,0A10.825707604248542,10.825707604248542,0,1,1,-10.825707604248542,0A10.825707604248542,10.825707604248542,0,1,1,10.825707604248542,0" fill="#f58518" stroke-width="2" opacity="0.3"/><path transform="translate(180,290)" d="M10.99597240021236,0A10.99597240021236,10.99597240021236,0,1,1,-10.99597240021236,0A10.99597240021236,10.99597240021236,0,1,1,10.99597240021236,0" fill="#4c78a8" stroke-width="2" opacity="0.3"/><path transform="translate(12,310)" d="M5,0A5,5,0,1,1,-5,0A5,5,0,1,1,5,0" fill="#f58518" stroke-width="2" opacity="0.8"/><path transform="translate(28.000000000000004,310)" d="M8.226541113376802,0A8.226541113376802,8.226541113376802,0,1,1,-8.226541113376802,0A8.226541113376802,8.226541113376802,0,1,1,8.226541113376802,0" fill="#4c78a8" stroke-width="2" opacity="0.8"/><path transform="translate(84,330)" d="M9.000197136869097,0A9.000197136869097,9.000197136869097,0,1,1,-9.000197136869097,0A9.000197136869097,9.000197136869097,0,1,1,9.000197136869097,0" fill="#f58518" stroke-width="2" opacity="0.8"/><path transform="translate(115.99999999999999,330)" d="M9.713761158103225,0A9.713761158103225,9.713761158103225,0,1,1,-9.713761158103225,0A9.713761158103225,9.713761158103225,0,1,1,9.713761158103225,0" fill="#4c78a8" stroke-width="2" opacity="0.8"/></g><g class="mark-group role-legend" role="graphics-symbol" aria-roledescription="legend" aria-label="Symbol legend titled 'Gender' for fill color with 2 values: Female, Male"><g transform="translate(418,0)"><path class="background" aria-hidden="true" d="M0,0h50v40h-50Z" pointer-events="none"/><g><g class="mark-group role-legend-entry"><g transform="translate(0,16)"><path class="background" aria-hidden="true" d="M0,0h0v0h0Z" pointer-events="none"/><g><g class="mark-group role-scope" role="graphics-object" aria-roledescription="group mark container"><g transform="translate(0,0)"><path class="background" aria-hidden="true" d="M0,0h49.3447265625v11h-49.3447265625Z" pointer-events="none" opacity="1"/><g><g class="mark-symbol role-legend-symbol" pointer-events="none"><path transform="translate(6,6)" d="M5,0A5,5,0,1,1,-5,0A5,5,0,1,1,5,0" fill="#4c78a8" stroke-width="1.5" opacity="0.7"/></g><g class="mark-text role-legend-label" pointer-events="none"><text text-anchor="start" transform="translate(16,9)" font-family="sans-serif" font-size="10px" fill="#000" opacity="1">Female</text></g></g><path class="foreground" aria-hidden="true" d="" pointer-events="none" display="none"/></g><g transform="translate(0,13)"><path class="background" aria-hidden="true" d="M0,0h49.3447265625v11h-49.3447265625Z" pointer-events="none" opacity="1"/><g><g class="mark-symbol role-legend-symbol" pointer-events="none"><path transform="translate(6,6)" d="M5,0A5,5,0,1,1,-5,0A5,5,0,1,1,5,0" fill="#f58518" stroke-width="1.5" opacity="0.7"/></g><g class="mark-text role-legend-label" pointer-events="none"><text text-anchor="start" transform="translate(16,9)" font-family="sans-serif" font-size="10px" fill="#000" opacity="1">Male</text></g></g><path class="foreground" aria-hidden="true" d="" pointer-events="none" display="none"/></g></g></g><path class="foreground" aria-hidden="true" d="" pointer-events="none" display="none"/></g></g><g class="mark-text role-legend-title" pointer-events="none"><text text-anchor="start" transform="translate(0,9)" font-family="sans-serif" font-size="11px" font-weight="bold" fill="#000" opacity="1">Gender</text></g></g><path class="foreground" aria-hidden="true" d="" pointer-events="none" display="none"/></g></g><g class="mark-group role-legend" role="graphics-symbol" aria-roledescription="legend" aria-label="Symbol legend titled '-Log10 P value' for size with values from 0 to 4"><g transform="translate(418,48)"><path class="background" aria-hidden="true" d="M0,0h78v77h-78Z" pointer-events="none"/><g><g class="mark-group role-legend-entry"><g transform="translate(0,16)"><path class="background" aria-hidden="true" d="M0,0h0v0h0Z" pointer-events="none"/><g><g class="mark-group role-scope" role="graphics-object" aria-roledescription="group mark container"><g transform="translate(0,0)"><path class="background" aria-hidden="true" d="M0,0h33.3642578125v24.68033988749895h-33.3642578125Z" pointer-events="none" opacity="1"/><g><g class="mark-symbol role-legend-symbol" pointer-events="none"><path transform="translate(0,12)" d="M11.180339887498949,0A11.180339887498949,11.180339887498949,0,1,1,-11.180339887498949,0A11.180339887498949,11.180339887498949,0,1,1,11.180339887498949,0" fill="black" fill-opacity="0.7" stroke-width="1.5" opacity="0.7"/></g><g class="mark-text role-legend-label" pointer-events="none"><text text-anchor="start" transform="translate(0,15)" font-family="sans-serif" font-size="10px" fill="#000" opacity="1">0 – 5</text></g></g><path class="foreground" aria-hidden="true" d="" pointer-events="none" display="none"/></g><g transform="translate(0,27)"><path class="background" aria-hidden="true" d="M0,0h33.3642578125v10h-33.3642578125Z" pointer-events="none" opacity="1"/><g><g class="mark-symbol role-legend-symbol" pointer-events="none"><path transform="translate(0,5)" d="M3.101506662445704,0A3.101506662445704,3.101506662445704,0,1,1,-3.101506662445704,0A3.101506662445704,3.101506662445704,0,1,1,3.101506662445704,0" fill="black" fill-opacity="0.7" stroke-width="1.5" opacity="0.7"/></g><g class="mark-text role-legend-label" pointer-events="none"><text text-anchor="start" transform="translate(0,8)" font-family="sans-serif" font-size="10px" fill="#000" opacity="1">5 – 10</text></g></g><path class="foreground" aria-hidden="true" d="" pointer-events="none" display="none"/></g><g transform="translate(0,44)"><path class="background" aria-hidden="true" d="M0,0h33.3642578125v5h-33.3642578125Z" pointer-events="none" opacity="1"/><g><g class="mark-symbol role-legend-symbol" pointer-events="none"><path transform="translate(0,0)" d="MNaN,0" fill="black" fill-opacity="0.7" stroke-width="1.5" opacity="0.7"/></g><g class="mark-text role-legend-label" pointer-events="none"><text text-anchor="start" transform="translate(0,3)" font-family="sans-serif" font-size="10px" fill="#000" opacity="1">10 – 15</text></g></g><path class="foreground" aria-hidden="true" d="" pointer-events="none" display="none"/></g><g transform="translate(0,56)"><path class="background" aria-hidden="true" d="M0,0h33.3642578125v5h-33.3642578125Z" pointer-events="none" opacity="1"/><g><g class="mark-symbol role-legend-symbol" pointer-events="none"><path transform="translate(0,0)" d="MNaN,0" fill="black" fill-opacity="0.7" stroke-width="1.5" opacity="0.7"/></g><g class="mark-text role-legend-label" pointer-events="none"><text text-anchor="start" transform="translate(0,3)" font-family="sans-serif" font-size="10px" fill="#000" opacity="1">15 – 20</text></g></g><path class="foreground" aria-hidden="true" d="" pointer-events="none" display="none"/></g></g></g><path class="foreground" aria-hidden="true" d="" pointer-events="none" display="none"/></g></g><g class="mark-text role-legend-title" pointer-events="none"><text text-anchor="start" transform="translate(0,9)" font-family="sans-serif" font-size="11px" font-weight="bold" fill="#000" opacity="1">-Log10 P value</text></g></g><path class="foreground" aria-hidden="true" d="" pointer-events="none" display="none"/></g></g><g class="mark-group role-legend" role="graphics-symbol" aria-roledescription="legend" aria-label="Symbol legend titled 'Significant' for opacity with 2 values: false, true"><g transform="translate(418,133)"><path class="background" aria-hidden="true" d="M0,0h57v45h-57Z" pointer-events="none"/><g><g class="mark-group role-legend-entry"><g transform="translate(0,16)"><path class="background" aria-hidden="true" d="M0,0h0v0h0Z" pointer-events="none"/><g><g class="mark-group role-scope" role="graphics-object" aria-roledescription="group mark container"><g transform="translate(0,0)"><path class="background" aria-hidden="true" d="M0,0h37.123046875v12.5h-37.123046875Z" pointer-events="none" opacity="1"/><g><g class="mark-symbol role-legend-symbol" pointer-events="none"><path transform="translate(6,6)" d="M5,0A5,5,0,1,1,-5,0A5,5,0,1,1,5,0" fill="black" fill-opacity="0.7" stroke-width="1.5" opacity="0.3"/></g><g class="mark-text role-legend-label" pointer-events="none"><text text-anchor="start" transform="translate(16,9)" font-family="sans-serif" font-size="10px" fill="#000" opacity="1">false</text></g></g><path class="foreground" aria-hidden="true" d="" pointer-events="none" display="none"/></g><g transform="translate(0,16)"><path class="background" aria-hidden="true" d="M0,0h37.123046875v12.5h-37.123046875Z" pointer-events="none" opacity="1"/><g><g class="mark-symbol role-legend-symbol" pointer-events="none"><path transform="translate(6,6)" d="M5,0A5,5,0,1,1,-5,0A5,5,0,1,1,5,0" fill="black" fill-opacity="0.7" stroke-width="1.5" opacity="0.8"/></g><g class="mark-text role-legend-label" pointer-events="none"><text text-anchor="start" transform="translate(16,9)" font-family="sans-serif" font-size="10px" fill="#000" opacity="1">true</text></g></g><path class="foreground" aria-hidden="true" d="" pointer-events="none" display="none"/></g></g></g><path class="foreground" aria-hidden="true" d="" pointer-events="none" display="none"/></g></g><g class="mark-text role-legend-title" pointer-events="none"><text text-anchor="start" transform="translate(0,9)" font-family="sans-serif" font-size="11px" font-weight="bold" fill="#000" opacity="1">Significant</text></g></g><path class="foreground" aria-hidden="true" d="" pointer-events="none" display="none"/></g></g><g class="mark-group role-title"><g transform="translate(200,-17.845431311872417)"><path class="background" aria-hidden="true" d="M0,0h0v0h0Z" pointer-events="none"/><g><g class="mark-text role-title-text" role="graphics-symbol" aria-roledescription="title" aria-label="Title text 'Gender'" pointer-events="none"><text text-anchor="middle" transform="translate(0,10)" font-family="sans-serif" font-size="13px" font-weight="bold" fill="#000" opacity="1">Gender</text></g></g><path class="foreground" aria-hidden="true" d="" pointer-events="none" display="none"/></g></g></g><path class="foreground" aria-hidden="true" d="" display="none"/></g></g></g></svg>