<svg xmlns="http://www.w3.org/2000/svg" xmlns:xlink="http://www.w3.org/1999/xlink" version="1.1" class="marks" width="483" height="202" viewBox="0 0 483 202"><rect width="483" height="202" fill="white"/><g fill="none" stroke-miterlimit="10" transform="translate(82,22)"><g class="mark-group role-frame root" role="graphics-object" aria-roledescription="group mark container"><g transform="translate(0,0)"><path class="background" aria-hidden="true" d="M0.5,0.5h300v120h-300Z" stroke="#ddd"/><g><g class="mark-group role-axis" aria-hidden="true"><g transform="translate(0.5,120.5)"><path class="background" aria-hidden="true" d="M0,0h0v0h0Z" pointer-events="none"/><g><g class="mark-rule role-axis-grid" pointer-events="none"><line transform="translate(0,0)" x2="0" y2="-120" stroke="#ddd" stroke-width="1" opacity="1"/><line transform="translate(30,0)" x2="0" y2="-120" stroke="#ddd" stroke-width="1" opacity="1"/><line transform="translate(60,0)" x2="0" y2="-120" stroke="#ddd" stroke-width="1" opacity="1"/><line transform="translate(90,0)" x2="0" y2="-120" stroke="#ddd" stroke-width="1" opacity="1"/><line transform="translate(120,0)" x2="0" y2="-120" stroke="#ddd" stroke-width="1" opacity="1"/><line transform="translate(150,0)" x2="0" y2="-120" stroke="#ddd" stroke-width="1" opacity="1"/><line transform="translate(180,0)" x2="0" y2="-120" stroke="#ddd" stroke-width="1" opacity="1"/><line transform="translate(210,0)" x2="0" y2="-120" stroke="#ddd" stroke-width="1" opacity="1"/><line transform="translate(240,0)" x2="0" y2="-120" stroke="#ddd" stroke-width="1" opacity="1"/><line transform="translate(270,0)" x2="0" y2="-120" stroke="#ddd" stroke-width="1" opacity="1"/><line transform="translate(300,0)" x2="0" y2="-120" stroke="#ddd" stroke-width="1" opacity="1"/></g></g><path class="foreground" aria-hidden="true" d="" pointer-events="none" display="none"/></g></g><g class="mark-group role-axis" role="graphics-symbol" aria-roledescription="axis" aria-label="X-axis titled 'ROC-AUC' for a linear scale with values from 0.0 to 1.0"><g transform="translate(0.5,120.5)"><path class="background" aria-hidden="true" d="M0,0h0v0h0Z" pointer-events="none"/><g><g class="mark-rule role-axis-tick" pointer-events="none"><line transform="translate(0,0)" x2="0" y2="5" stroke="#888" stroke-width="1" opacity="1"/><line transform="translate(30,0)" x2="0" y2="5" stroke="#888" stroke-width="1" opacity="1"/><line transform="translate(60,0)" x2="0" y2="5" stroke="#888" stroke-width="1" opacity="1"/><line transform="translate(90,0)" x2="0" y2="5" stroke="#888" stroke-width="1" opacity="1"/><line transform="translate(120,0)" x2="0" y2="5" stroke="#888" stroke-width="1" opacity="1"/><line transform="translate(150,0)" x2="0" y2="5" stroke="#888" stroke-width="1" opacity="1"/><line transform="translate(180,0)" x2="0" y2="5" stroke="#888" stroke-width="1" opacity="1"/><line transform="translate(210,0)" x2="0" y2="5" stroke="#888" stroke-width="1" opacity="1"/><line transform="translate(240,0)" x2="0" y2="5" stroke="#888" stroke-width="1" opacity="1"/><line transform="translate(270,0)" x2="0" y2="5" stroke="#888" stroke-width="1" opacity="1"/><line transform="translate(300,0)" x2="0" y2="5" stroke="#888" stroke-width="1" opacity="1"/></g><g class="mark-text role-axis-label" pointer-events="none"><text text-anchor="start" transform="translate(0,15)" font-family="sans-serif" font-size="10px" fill="#000" opacity="1">0.0</text><text text-anchor="middle" transform="translate(30,15)" font-family="sans-serif" font-size="10px" fill="#000" opacity="1">0.1</text><text text-anchor="middle" transform="translate(60,15)" font-family="sans-serif" font-size="10px" fill="#000" opacity="1">0.2</text><text text-anchor="middle" transform="translate(90,15)" font-family="sans-serif" font-size="10px" fill="#000" opacity="1">0.3</text><text text-anchor="middle" transform="translate(120,15)" font-family="sans-serif" font-size="10px" fill="#000" opacity="1">0.4</text><text text-anchor="middle" transform="translate(150,15)" font-family="sans-serif" font-size="10px" fill="#000" opacity="1">0.5</text><text text-anchor="middle" transform="translate(180,15)" font-family="sans-serif" font-size="10px" fill="#000" opacity="1">0.6</text><text text-anchor="middle" transform="translate(210,15)" font-family="sans-serif" font-size="10px" fill="#000" opacity="1">0.7</text><text text-anchor="middle" transform="translate(240,15)" font-family="sans-serif" font-size="10px" fill="#000" opacity="1">0.8</text><text text-anchor="middle" transform="translate(270,15)" font-family="sans-serif" font-size="10px" fill="#000" opacity="1">0.9</text><text text-anchor="end" transform="translate(300,15)" font-family="sans-serif" font-size="10px" fill="#000" opacity="1">1.0</text></g><g class="mark-rule role-axis-domain" pointer-events="none"><line transform="translate(0,0)" x2="300" y2="0" stroke="#888" stroke-width="1" opacity="1"/></g><g class="mark-text role-axis-title" pointer-events="none"><text text-anchor="middle" transform="translate(150,30)" font-family="sans-serif" font-size="11px" font-weight="bold" fill="#000" opacity="1">ROC-AUC</text></g></g><path class="foreground" aria-hidden="true" d="" pointer-events="none" display="none"/></g></g><g class="mark-group role-axis" role="graphics-symbol" aria-roledescription="axis" aria-label="Y-axis titled 'ID' for a discrete scale with 6 values: GSE144304, GSE198266, GSE236600, GSE28422, GSE8479, GSE97084"><g transform="translate(0.5,0.5)"><path class="background" aria-hidden="true" d="M0,0h0v0h0Z" pointer-events="none"/><g><g class="mark-rule role-axis-tick" pointer-events="none"><line transform="translate(0,10)" x2="-5" y2="0" stroke="#888" stroke-width="1" opacity="1"/><line transform="translate(0,30)" x2="-5" y2="0" stroke="#888" stroke-width="1" opacity="1"/><line transform="translate(0,50)" x2="-5" y2="0" stroke="#888" stroke-width="1" opacity="1"/><line transform="translate(0,70)" x2="-5" y2="0" stroke="#888" stroke-width="1" opacity="1"/><line transform="translate(0,90)" x2="-5" y2="0" stroke="#888" stroke-width="1" opacity="1"/><line transform="translate(0,110)" x2="-5" y2="0" stroke="#888" stroke-width="1" opacity="1"/></g><g class="mark-text role-axis-label" pointer-events="none"><text text-anchor="end" transform="translate(-7,13)" font-family="sans-serif" font-size="10px" fill="#000" opacity="1">GSE144304</text><text text-anchor="end" transform="translate(-7,33)" font-family="sans-serif" font-size="10px" fill="#000" opacity="1">GSE198266</text><text text-anchor="end" transform="translate(-7,53)" font-family="sans-serif" font-size="10px" fill="#000" opacity="1">GSE236600</text><text text-anchor="end" transform="translate(-7,73)" font-family="sans-serif" font-size="10px" fill="#000" opacity="1">GSE28422</text><text text-anchor="end" transform="translate(-7,93)" font-family="sans-serif" font-size="10px" fill="#000" opacity="1">GSE8479</text><text text-anchor="end" transform="translate(-7,113)" font-family="sans-serif" font-size="10px" fill="#000" opacity="1">GSE97084</text></g><g class="mark-rule role-axis-domain" pointer-events="none"><line transform="translate(0,0)" x2="0" y2="120" stroke="#888" stroke-width="1" opacity="1"/></g><g class="mark-text role-axis-title" pointer-events="none"><text text-anchor="middle" transform="translate(-65.4873046875,60) rotate(-90) translate(0,-2)" font-family="sans-serif" font-size="11px" font-weight="bold" fill="#000" opacity="1">ID</text></g></g><path class="foreground" aria-hidden="true" d="" pointer-events="none" display="none"/></g></g><g class="mark-symbol role-mark marks" role="graphics-object" aria-roledescription="symbol mark container"><path aria-label="ROC-AUC: 0.08; ID: GSE144304; Age: Young; Significant: true; -Log10 P value: 4.19111413264" role="graphics-symbol" aria-roledescription="circle" transform="translate(24,10)" d="M5,0A5,5,0,1,1,-5,0A5,5,0,1,1,5,0" fill="#f58518" stroke-width="2" opacity="0.8"/><path aria-label="ROC-AUC: 0.42; ID: GSE144304; Age: Old; Significant: false; -Log10 P value: 0.388276691993" role="graphics-symbol" aria-roledescription="circle" transform="translate(126,10)" d="M8.389,0A8.389,8.389,0,1,1,-8.389,0A8.389,8.389,0,1,1,8.389,0" fill="#4c78a8" stroke-width="2" opacity="0.3"/><path aria-label="ROC-AUC: 0.78; ID: GSE198266; Age: Young; Significant: false; -Log10 P value: 0.363512103647" role="graphics-symbol" aria-roledescription="circle" transform="translate(234,30)" d="M8.406,0A8.406,8.406,0,1,1,-8.406,0A8.406,8.406,0,1,1,8.406,0" fill="#f58518" stroke-width="2" opacity="0.3"/><path aria-label="ROC-AUC: 0.22; ID: GSE198266; Age: Old; Significant: false; -Log10 P value: 0.681936665037" role="graphics-symbol" aria-roledescription="circle" transform="translate(66,30)" d="M8.177,0A8.177,8.177,0,1,1,-8.177,0A8.177,8.177,0,1,1,8.177,0" fill="#4c78a8" stroke-width="2" opacity="0.3"/><path aria-label="ROC-AUC: 0.15; ID: GSE236600; Age: Young; Significant: true; -Log10 P value: 1.54821356448" role="graphics-symbol" aria-roledescription="circle" transform="translate(45,50)" d="M7.519,0A7.519,7.519,0,1,1,-7.519,0A7.519,7.519,0,1,1,7.519,0" fill="#f58518" stroke-width="2" opacity="0.8"/><path aria-label="ROC-AUC: 0.47; ID: GSE236600; Age: Old; Significant: false; -Log10 P value: 0.0639892042848" role="graphics-symbol" aria-roledescription="circle" transform="translate(141,50)" d="M8.616,0A8.616,8.616,0,1,1,-8.616,0A8.616,8.616,0,1,1,8.616,0" fill="#4c78a8" stroke-width="2" opacity="0.3"/><path aria-label="ROC-AUC: 0.38; ID: GSE28422; Age: Young; Significant: true; -Log10 P value: 1.38615817812" role="graphics-symbol" aria-roledescription="circle" transform="translate(114,70)" d="M7.646,0A7.646,7.646,0,1,1,-7.646,0A7.646,7.646,0,1,1,7.646,0" fill="#f58518" stroke-width="2" opacity="0.8"/><path aria-label="ROC-AUC: 0.47; ID: GSE28422; Age: Old; Significant: false; -Log10 P value: 0.188424994129" role="graphics-symbol" aria-roledescription="circle" transform="translate(141,70)" d="M8.529,0A8.529,8.529,0,1,1,-8.529,0A8.529,8.529,0,1,1,8.529,0" fill="#4c78a8" stroke-width="2" opacity="0.3"/><path aria-label="ROC-AUC: 0.29; ID: GSE8479; Age: Young; Significant: false; -Log10 P value: 1.18909571933" role="graphics-symbol" aria-roledescription="circle" transform="translate(87,90)" d="M7.798,0A7.798,7.798,0,1,1,-7.798,0A7.798,7.798,0,1,1,7.798,0" fill="#f58518" stroke-width="2" opacity="0.3"/><path aria-label="ROC-AUC: 0.21; ID: GSE8479; Age: Old; Significant: true; -Log10 P value: 1.90657831484" role="graphics-symbol" aria-roledescription="circle" transform="translate(63,90)" d="M7.229,0A7.229,7.229,0,1,1,-7.229,0A7.229,7.229,0,1,1,7.229,0" fill="#4c78a8" stroke-width="2" opacity="0.8"/><path aria-label="ROC-AUC: 0.68; ID: GSE97084; Age: Young; Significant: false; -Log10 P value: 0.801342913046" role="graphics-symbol" aria-roledescription="circle" transform="translate(204.00000000000003,110)" d="M8.089,0A8.089,8.089,0,1,1,-8.089,0A8.089,8.089,0,1,1,8.089,0" fill="#f58518" stroke-width="2" opacity="0.3"/><path aria-label="ROC-AUC: 0.42; ID: GSE97084; Age: Old; Significant: false; -Log10 P value: 0.106238237942" role="graphics-symbol" aria-roledescription="circle" transform="translate(126,110)" d="M8.587,0A8.587,8.587,0,1,1,-8.587,0A8.587,8.587,0,1,1,8.587,0" fill="#4c78a8" stroke-width="2" opacity="0.3"/></g><g class="mark-group role-legend" role="graphics-symbol" aria-roledescription="legend" aria-label="Symbol legend titled 'Age' for fill color with 2 values: Old, Young"><g transform="translate(318,0)"><path class="background" aria-hidden="true" d="M0,0h44v40h-44Z" pointer-events="none"/><g><g class="mark-group role-legend-entry"><g transform="translate(0,16)"><path class="background" aria-hidden="true" d="M0,0h0v0h0Z" pointer-events="none"/><g><g class="mark-group role-scope" role="graphics-object" aria-roledescription="group mark container"><g transform="translate(0,0)"><path class="background" aria-hidden="true" d="M0,0h43.998046875v11h-43.998046875Z" pointer-events="none" opacity="1"/><g><g class="mark-symbol role-legend-symbol" pointer-events="none"><path transform="translate(6,6)" d="M5,0A5,5,0,1,1,-5,0A5,5,0,1,1,5,0" fill="#4c78a8" stroke-width="1.5" opacity="0.7"/></g><g class="mark-text role-legend-label" pointer-events="none"><text text-anchor="start" transform="translate(16,9)" font-family="sans-serif" font-size="10px" fill="#000" opacity="1">Old</text></g></g><path class="foreground" aria-hidden="true" d="" pointer-events="none" display="none"/></g><g transform="translate(0,13)"><path class="background" aria-hidden="true" d="M0,0h43.998046875v11h-43.998046875Z" pointer-events="none" opacity="1"/><g><g class="mark-symbol role-legend-symbol" pointer-events="none"><path transform="translate(6,6)" d="M5,0A5,5,0,1,1,-5,0A5,5,0,1,1,5,0" fill="#f58518" stroke-width="1.5" opacity="0.7"/></g><g class="mark-text role-legend-label" pointer-events="none"><text text-anchor="start" transform="translate(16,9)" font-family="sans-serif" font-size="10px" fill="#000" opacity="1">Young</text></g></g><path class="foreground" aria-hidden="true" d="" pointer-events="none" display="none"/></g></g></g><path class="foreground" aria-hidden="true" d="" pointer-events="none" display="none"/></g></g><g class="mark-text role-legend-title" pointer-events="none"><text text-anchor="start" transform="translate(0,9)" font-family="sans-serif" font-size="11px" font-weight="bold" fill="#000" opacity="1">Age</text></g></g><path class="foreground" aria-hidden="true" d="" pointer-events="none" display="none"/></g></g><g class="mark-group role-legend" role="graphics-symbol" aria-roledescription="legend" aria-label="Symbol legend titled '-Log10 P value' for size with values from 0 to 4"><g transform="translate(318,48)"><path class="background" aria-hidden="true" d="M0,0h78v74h-78Z" pointer-events="none"/><g><g class="mark-group role-legend-entry"><g transform="translate(0,16)"><path class="background" aria-hidden="true" d="M0,0h0v0h0Z" pointer-events="none"/><g><g class="mark-group role-scope" role="graphics-object" aria-roledescription="group mark container"><g transform="translate(0,0)"><path class="background" aria-hidden="true" d="M0,0h33.3642578125v19.66025403784439h-33.3642578125Z" pointer-events="none" opacity="1"/><g><g class="mark-symbol role-legend-symbol" pointer-events="none"><path transform="translate(0,9.5)" d="M8.66,0A8.66,8.66,0,1,1,-8.66,0A8.66,8.66,0,1,1,8.66,0" fill="black" fill-opacity="0.7" stroke-width="1.5" opacity="0.7"/></g><g class="mark-text role-legend-label" pointer-events="none"><text text-anchor="start" transform="translate(0,12.5)" font-family="sans-serif" font-size="10px" fill="#000" opacity="1">0 – 5</text></g></g><path class="foreground" aria-hidden="true" d="" pointer-events="none" display="none"/></g><g transform="translate(0,23)"><path class="background" aria-hidden="true" d="M0,0h33.3642578125v10.417906326299608h-33.3642578125Z" pointer-events="none" opacity="1"/><g><g class="mark-symbol role-legend-symbol" pointer-events="none"><path transform="translate(0,5)" d="M3.918,0A3.918,3.918,0,1,1,-3.918,0A3.918,3.918,0,1,1,3.918,0" fill="black" fill-opacity="0.7" stroke-width="1.5" opacity="0.7"/></g><g class="mark-text role-legend-label" pointer-events="none"><text text-anchor="start" transform="translate(0,8)" font-family="sans-serif" font-size="10px" fill="#000" opacity="1">5 – 10</text></g></g><path class="foreground" aria-hidden="true" d="" pointer-events="none" display="none"/></g><g transform="translate(0,41)"><path class="background" aria-hidden="true" d="M0,0h33.3642578125v5h-33.3642578125Z" pointer-events="none" opacity="1"/><g><g class="mark-symbol role-legend-symbol" pointer-events="none"><path transform="translate(0,0)" d="MNaN,0" fill="black" fill-opacity="0.7" stroke-width="1.5" opacity="0.7"/></g><g class="mark-text role-legend-label" pointer-events="none"><text text-anchor="start" transform="translate(0,3)" font-family="sans-serif" font-size="10px" fill="#000" opacity="1">10 – 15</text></g></g><path class="foreground" aria-hidden="true" d="" pointer-events="none" display="none"/></g><g transform="translate(0,53)"><path class="background" aria-hidden="true" d="M0,0h33.3642578125v5h-33.3642578125Z" pointer-events="none" opacity="1"/><g><g class="mark-symbol role-legend-symbol" pointer-events="none"><path transform="translate(0,0)" d="MNaN,0" fill="black" fill-opacity="0.7" stroke-width="1.5" opacity="0.7"/></g><g class="mark-text role-legend-label" pointer-events="none"><text text-anchor="start" transform="translate(0,3)" font-family="sans-serif" font-size="10px" fill="#000" opacity="1">15 – 20</text></g></g><path class="foreground" aria-hidden="true" d="" pointer-events="none" display="none"/></g></g></g><path class="foreground" aria-hidden="true" d="" pointer-events="none" display="none"/></g></g><g class="mark-text role-legend-title" pointer-events="none"><text text-anchor="start" transform="translate(0,9)" font-family="sans-serif" font-size="11px" font-weight="bold" fill="#000" opacity="1">-Log10 P value</text></g></g><path class="foreground" aria-hidden="true" d="" pointer-events="none" display="none"/></g></g><g class="mark-group role-legend" role="graphics-symbol" aria-roledescription="legend" aria-label="Symbol legend titled 'Significant' for opacity with 2 values: false, true"><g transform="translate(318,130)"><path class="background" aria-hidden="true" d="M0,0h57v45h-57Z" pointer-events="none"/><g><g class="mark-group role-legend-entry"><g transform="translate(0,16)"><path class="background" aria-hidden="true" d="M0,0h0v0h0Z" pointer-events="none"/><g><g class="mark-group role-scope" role="graphics-object" aria-roledescription="group mark container"><g transform="translate(0,0)"><path class="background" aria-hidden="true" d="M0,0h37.123046875v12.5h-37.123046875Z" pointer-events="none" opacity="1"/><g><g class="mark-symbol role-legend-symbol" pointer-events="none"><path transform="translate(6,6)" d="M5,0A5,5,0,1,1,-5,0A5,5,0,1,1,5,0" fill="black" fill-opacity="0.7" stroke-width="1.5" opacity="0.3"/></g><g class="mark-text role-legend-label" pointer-events="none"><text text-anchor="start" transform="translate(16,9)" font-family="sans-serif" font-size="10px" fill="#000" opacity="1">false</text></g></g><path class="foreground" aria-hidden="true" d="" pointer-events="none" display="none"/></g><g transform="translate(0,16)"><path class="background" aria-hidden="true" d="M0,0h37.123046875v12.5h-37.123046875Z" pointer-events="none" opacity="1"/><g><g class="mark-symbol role-legend-symbol" pointer-events="none"><path transform="translate(6,6)" d="M5,0A5,5,0,1,1,-5,0A5,5,0,1,1,5,0" fill="black" fill-opacity="0.7" stroke-width="1.5" opacity="0.8"/></g><g class="mark-text role-legend-label" pointer-events="none"><text text-anchor="start" transform="translate(16,9)" font-family="sans-serif" font-size="10px" fill="#000" opacity="1">true</text></g></g><path class="foreground" aria-hidden="true" d="" pointer-events="none" display="none"/></g></g></g><path class="foreground" aria-hidden="true" d="" pointer-events="none" display="none"/></g></g><g class="mark-text role-legend-title" pointer-events="none"><text text-anchor="start" transform="translate(0,9)" font-family="sans-serif" font-size="11px" font-weight="bold" fill="#000" opacity="1">Significant</text></g></g><path class="foreground" aria-hidden="true" d="" pointer-events="none" display="none"/></g></g><g class="mark-group role-title"><g transform="translate(150,-17)"><path class="background" aria-hidden="true" d="M0,0h0v0h0Z" pointer-events="none"/><g><g class="mark-text role-title-text" role="graphics-symbol" aria-roledescription="title" aria-label="Title text 'Macrophage Exercise Scores Ages'" pointer-events="none"><text text-anchor="middle" transform="translate(0,10)" font-family="sans-serif" font-size="13px" font-weight="bold" fill="#000" opacity="1">Macrophage Exercise Scores Ages</text></g></g><path class="foreground" aria-hidden="true" d="" pointer-events="none" display="none"/></g></g></g><path class="foreground" aria-hidden="true" d="" display="none"/></g></g></g></svg>