<svg xmlns="http://www.w3.org/2000/svg" xmlns:xlink="http://www.w3.org/1999/xlink" version="1.1" class="marks" width="483" height="399" viewBox="0 0 483 399"><rect width="483" height="399" fill="white"/><g fill="none" stroke-miterlimit="10" transform="translate(82,22)"><g class="mark-group role-frame root" role="graphics-object" aria-roledescription="group mark container"><g transform="translate(0,0)"><path class="background" aria-hidden="true" d="M0.5,0.5h300v340h-300Z" stroke="#ddd"/><g><g class="mark-group role-axis" aria-hidden="true"><g transform="translate(0.5,340.5)"><path class="background" aria-hidden="true" d="M0,0h0v0h0Z" pointer-events="none"/><g><g class="mark-rule role-axis-grid" pointer-events="none"><line transform="translate(0,0)" x2="0" y2="-340" stroke="#ddd" stroke-width="1" opacity="1"/><line transform="translate(30,0)" x2="0" y2="-340" stroke="#ddd" stroke-width="1" opacity="1"/><line transform="translate(60,0)" x2="0" y2="-340" stroke="#ddd" stroke-width="1" opacity="1"/><line transform="translate(90,0)" x2="0" y2="-340" stroke="#ddd" stroke-width="1" opacity="1"/><line transform="translate(120,0)" x2="0" y2="-340" stroke="#ddd" stroke-width="1" opacity="1"/><line transform="translate(150,0)" x2="0" y2="-340" stroke="#ddd" stroke-width="1" opacity="1"/><line transform="translate(180,0)" x2="0" y2="-340" stroke="#ddd" stroke-width="1" opacity="1"/><line transform="translate(210,0)" x2="0" y2="-340" stroke="#ddd" stroke-width="1" opacity="1"/><line transform="translate(240,0)" x2="0" y2="-340" stroke="#ddd" stroke-width="1" opacity="1"/><line transform="translate(270,0)" x2="0" y2="-340" stroke="#ddd" stroke-width="1" opacity="1"/><line transform="translate(300,0)" x2="0" y2="-340" stroke="#ddd" stroke-width="1" opacity="1"/></g></g><path class="foreground" aria-hidden="true" d="" pointer-events="none" display="none"/></g></g><g class="mark-group role-axis" role="graphics-symbol" aria-roledescription="axis" aria-label="X-axis titled 'ROC-AUC' for a linear scale with values from 0.0 to 1.0"><g transform="translate(0.5,340.5)"><path class="background" aria-hidden="true" d="M0,0h0v0h0Z" pointer-events="none"/><g><g class="mark-rule role-axis-tick" pointer-events="none"><line transform="translate(0,0)" x2="0" y2="5" stroke="#888" stroke-width="1" opacity="1"/><line transform="translate(30,0)" x2="0" y2="5" stroke="#888" stroke-width="1" opacity="1"/><line transform="translate(60,0)" x2="0" y2="5" stroke="#888" stroke-width="1" opacity="1"/><line transform="translate(90,0)" x2="0" y2="5" stroke="#888" stroke-width="1" opacity="1"/><line transform="translate(120,0)" x2="0" y2="5" stroke="#888" stroke-width="1" opacity="1"/><line transform="translate(150,0)" x2="0" y2="5" stroke="#888" stroke-width="1" opacity="1"/><line transform="translate(180,0)" x2="0" y2="5" stroke="#888" stroke-width="1" opacity="1"/><line transform="translate(210,0)" x2="0" y2="5" stroke="#888" stroke-width="1" opacity="1"/><line transform="translate(240,0)" x2="0" y2="5" stroke="#888" stroke-width="1" opacity="1"/><line transform="translate(270,0)" x2="0" y2="5" stroke="#888" stroke-width="1" opacity="1"/><line transform="translate(300,0)" x2="0" y2="5" stroke="#888" stroke-width="1" opacity="1"/></g><g class="mark-text role-axis-label" pointer-events="none"><text text-anchor="start" transform="translate(0,15)" font-family="sans-serif" font-size="10px" fill="#000" opacity="1">0.0</text><text text-anchor="middle" transform="translate(30,15)" font-family="sans-serif" font-size="10px" fill="#000" opacity="1">0.1</text><text text-anchor="middle" transform="translate(60,15)" font-family="sans-serif" font-size="10px" fill="#000" opacity="1">0.2</text><text text-anchor="middle" transform="translate(90,15)" font-family="sans-serif" font-size="10px" fill="#000" opacity="1">0.3</text><text text-anchor="middle" transform="translate(120,15)" font-family="sans-serif" font-size="10px" fill="#000" opacity="1">0.4</text><text text-anchor="middle" transform="translate(150,15)" font-family="sans-serif" font-size="10px" fill="#000" opacity="1">0.5</text><text text-anchor="middle" transform="translate(180,15)" font-family="sans-serif" font-size="10px" fill="#000" opacity="1">0.6</text><text text-anchor="middle" transform="translate(210,15)" font-family="sans-serif" font-size="10px" fill="#000" opacity="1">0.7</text><text text-anchor="middle" transform="translate(240,15)" font-family="sans-serif" font-size="10px" fill="#000" opacity="1">0.8</text><text text-anchor="middle" transform="translate(270,15)" font-family="sans-serif" font-size="10px" fill="#000" opacity="1">0.9</text><text text-anchor="end" transform="translate(300,15)" font-family="sans-serif" font-size="10px" fill="#000" opacity="1">1.0</text></g><g class="mark-rule role-axis-domain" pointer-events="none"><line transform="translate(0,0)" x2="300" y2="0" stroke="#888" stroke-width="1" opacity="1"/></g><g class="mark-text role-axis-title" pointer-events="none"><text text-anchor="middle" transform="translate(150,30)" font-family="sans-serif" font-size="11px" font-weight="bold" fill="#000" opacity="1">ROC-AUC</text></g></g><path class="foreground" aria-hidden="true" d="" pointer-events="none" display="none"/></g></g><g class="mark-group role-axis" role="graphics-symbol" aria-roledescription="axis" aria-label="Y-axis titled 'ID' for a discrete scale with 17 values: GSE117525, GSE126296, GSE139258, GSE140089, GSE144304, ending with GSE8479"><g transform="translate(0.5,0.5)"><path class="background" aria-hidden="true" d="M0,0h0v0h0Z" pointer-events="none"/><g><g class="mark-rule role-axis-tick" pointer-events="none"><line transform="translate(0,10)" x2="-5" y2="0" stroke="#888" stroke-width="1" opacity="1"/><line transform="translate(0,30)" x2="-5" y2="0" stroke="#888" stroke-width="1" opacity="1"/><line transform="translate(0,50)" x2="-5" y2="0" stroke="#888" stroke-width="1" opacity="1"/><line transform="translate(0,70)" x2="-5" y2="0" stroke="#888" stroke-width="1" opacity="1"/><line transform="translate(0,90)" x2="-5" y2="0" stroke="#888" stroke-width="1" opacity="1"/><line transform="translate(0,110)" x2="-5" y2="0" stroke="#888" stroke-width="1" opacity="1"/><line transform="translate(0,130)" x2="-5" y2="0" stroke="#888" stroke-width="1" opacity="1"/><line transform="translate(0,150)" x2="-5" y2="0" stroke="#888" stroke-width="1" opacity="1"/><line transform="translate(0,170)" x2="-5" y2="0" stroke="#888" stroke-width="1" opacity="1"/><line transform="translate(0,190)" x2="-5" y2="0" stroke="#888" stroke-width="1" opacity="1"/><line transform="translate(0,210)" x2="-5" y2="0" stroke="#888" stroke-width="1" opacity="1"/><line transform="translate(0,230)" x2="-5" y2="0" stroke="#888" stroke-width="1" opacity="1"/><line transform="translate(0,250)" x2="-5" y2="0" stroke="#888" stroke-width="1" opacity="1"/><line transform="translate(0,270)" x2="-5" y2="0" stroke="#888" stroke-width="1" opacity="1"/><line transform="translate(0,290)" x2="-5" y2="0" stroke="#888" stroke-width="1" opacity="1"/><line transform="translate(0,310)" x2="-5" y2="0" stroke="#888" stroke-width="1" opacity="1"/><line transform="translate(0,330)" x2="-5" y2="0" stroke="#888" stroke-width="1" opacity="1"/></g><g class="mark-text role-axis-label" pointer-events="none"><text text-anchor="end" transform="translate(-7,13)" font-family="sans-serif" font-size="10px" fill="#000" opacity="1">GSE117525</text><text text-anchor="end" transform="translate(-7,33)" font-family="sans-serif" font-size="10px" fill="#000" opacity="1">GSE126296</text><text text-anchor="end" transform="translate(-7,53)" font-family="sans-serif" font-size="10px" fill="#000" opacity="1">GSE139258</text><text text-anchor="end" transform="translate(-7,73)" font-family="sans-serif" font-size="10px" fill="#000" opacity="1">GSE140089</text><text text-anchor="end" transform="translate(-7,93)" font-family="sans-serif" font-size="10px" fill="#000" opacity="1">GSE144304</text><text text-anchor="end" transform="translate(-7,113)" font-family="sans-serif" font-size="10px" fill="#000" opacity="1">GSE24235</text><text text-anchor="end" transform="translate(-7,133)" font-family="sans-serif" font-size="10px" fill="#000" opacity="1">GSE252357</text><text text-anchor="end" transform="translate(-7,153)" font-family="sans-serif" font-size="10px" fill="#000" opacity="1">GSE28422</text><text text-anchor="end" transform="translate(-7,173)" font-family="sans-serif" font-size="10px" fill="#000" opacity="1">GSE28998</text><text text-anchor="end" transform="translate(-7,193)" font-family="sans-serif" font-size="10px" fill="#000" opacity="1">GSE43219</text><text text-anchor="end" transform="translate(-7,213)" font-family="sans-serif" font-size="10px" fill="#000" opacity="1">GSE44051</text><text text-anchor="end" transform="translate(-7,233)" font-family="sans-serif" font-size="10px" fill="#000" opacity="1">GSE60591</text><text text-anchor="end" transform="translate(-7,253)" font-family="sans-serif" font-size="10px" fill="#000" opacity="1">GSE68585</text><text text-anchor="end" transform="translate(-7,273)" font-family="sans-serif" font-size="10px" fill="#000" opacity="1">GSE72462</text><text text-anchor="end" transform="translate(-7,293)" font-family="sans-serif" font-size="10px" fill="#000" opacity="1">GSE83352</text><text text-anchor="end" transform="translate(-7,313)" font-family="sans-serif" font-size="10px" fill="#000" opacity="1">GSE83578</text><text text-anchor="end" transform="translate(-7,333)" font-family="sans-serif" font-size="10px" fill="#000" opacity="1">GSE8479</text></g><g class="mark-rule role-axis-domain" pointer-events="none"><line transform="translate(0,0)" x2="0" y2="340" stroke="#888" stroke-width="1" opacity="1"/></g><g class="mark-text role-axis-title" pointer-events="none"><text text-anchor="middle" transform="translate(-65.4873046875,170) rotate(-90) translate(0,-2)" font-family="sans-serif" font-size="11px" font-weight="bold" fill="#000" opacity="1">ID</text></g></g><path class="foreground" aria-hidden="true" d="" pointer-events="none" display="none"/></g></g><g class="mark-symbol role-mark marks" role="graphics-object" aria-roledescription="symbol mark container"><path aria-label="ROC-AUC: 0.39; ID: GSE117525; Gender: Male; Significant: false; -Log10 P value: 1.10457745396" role="graphics-symbol" aria-roledescription="circle" transform="translate(117,10)" d="M7.89,0A7.89,7.89,0,1,1,-7.89,0A7.89,7.89,0,1,1,7.89,0" fill="#f58518" stroke-width="2" opacity="0.3"/><path aria-label="ROC-AUC: 0.45; ID: GSE117525; Gender: Female; Significant: false; -Log10 P value: 0.319664486585" role="graphics-symbol" aria-roledescription="circle" transform="translate(135,10)" d="M8.445,0A8.445,8.445,0,1,1,-8.445,0A8.445,8.445,0,1,1,8.445,0" fill="#4c78a8" stroke-width="2" opacity="0.3"/><path aria-label="ROC-AUC: 0.31; ID: GSE126296; Gender: Male; Significant: false; -Log10 P value: 0.412289034981" role="graphics-symbol" aria-roledescription="circle" transform="translate(93,30)" d="M8.381,0A8.381,8.381,0,1,1,-8.381,0A8.381,8.381,0,1,1,8.381,0" fill="#f58518" stroke-width="2" opacity="0.3"/><path aria-label="ROC-AUC: 0.41; ID: GSE126296; Gender: Female; Significant: false; -Log10 P value: 0.229884705213" role="graphics-symbol" aria-roledescription="circle" transform="translate(122.99999999999999,30)" d="M8.506,0A8.506,8.506,0,1,1,-8.506,0A8.506,8.506,0,1,1,8.506,0" fill="#4c78a8" stroke-width="2" opacity="0.3"/><path aria-label="ROC-AUC: 0.25; ID: GSE139258; Gender: Male; Significant: false; -Log10 P value: 0.205511953341" role="graphics-symbol" aria-roledescription="circle" transform="translate(75,50)" d="M8.522,0A8.522,8.522,0,1,1,-8.522,0A8.522,8.522,0,1,1,8.522,0" fill="#f58518" stroke-width="2" opacity="0.3"/><path aria-label="ROC-AUC: 0.6; ID: GSE139258; Gender: Female; Significant: false; -Log10 P value: 0.0736575533743" role="graphics-symbol" aria-roledescription="circle" transform="translate(180,50)" d="M8.611,0A8.611,8.611,0,1,1,-8.611,0A8.611,8.611,0,1,1,8.611,0" fill="#4c78a8" stroke-width="2" opacity="0.3"/><path aria-label="ROC-AUC: 0.19; ID: GSE140089; Gender: Male; Significant: true; -Log10 P value: 1.37571790416" role="graphics-symbol" aria-roledescription="circle" transform="translate(57,70)" d="M7.689,0A7.689,7.689,0,1,1,-7.689,0A7.689,7.689,0,1,1,7.689,0" fill="#f58518" stroke-width="2" opacity="0.8"/><path aria-label="ROC-AUC: 0.82; ID: GSE144304; Gender: Male; Significant: true; -Log10 P value: 2.22402566887" role="graphics-symbol" aria-roledescription="circle" transform="translate(245.99999999999997,90)" d="M7.024,0A7.024,7.024,0,1,1,-7.024,0A7.024,7.024,0,1,1,7.024,0" fill="#f58518" stroke-width="2" opacity="0.8"/><path aria-label="ROC-AUC: 0.91; ID: GSE144304; Gender: Female; Significant: true; -Log10 P value: 3.50723961097" role="graphics-symbol" aria-roledescription="circle" transform="translate(273,90)" d="M5.876,0A5.876,5.876,0,1,1,-5.876,0A5.876,5.876,0,1,1,5.876,0" fill="#4c78a8" stroke-width="2" opacity="0.8"/><path aria-label="ROC-AUC: 0.11; ID: GSE24235; Gender: Male; Significant: false; -Log10 P value: 1.22184874962" role="graphics-symbol" aria-roledescription="circle" transform="translate(33,110)" d="M7.804,0A7.804,7.804,0,1,1,-7.804,0A7.804,7.804,0,1,1,7.804,0" fill="#f58518" stroke-width="2" opacity="0.3"/><path aria-label="ROC-AUC: 0.25; ID: GSE24235; Gender: Female; Significant: false; -Log10 P value: 0.665546248849" role="graphics-symbol" aria-roledescription="circle" transform="translate(75,110)" d="M8.205,0A8.205,8.205,0,1,1,-8.205,0A8.205,8.205,0,1,1,8.205,0" fill="#4c78a8" stroke-width="2" opacity="0.3"/><path aria-label="ROC-AUC: 0.35; ID: GSE28422; Gender: Male; Significant: false; -Log10 P value: 1.289036881" role="graphics-symbol" aria-roledescription="circle" transform="translate(105,150)" d="M7.754,0A7.754,7.754,0,1,1,-7.754,0A7.754,7.754,0,1,1,7.754,0" fill="#f58518" stroke-width="2" opacity="0.3"/><path aria-label="ROC-AUC: 0.4; ID: GSE28422; Gender: Female; Significant: false; -Log10 P value: 0.823908740944" role="graphics-symbol" aria-roledescription="circle" transform="translate(120,150)" d="M8.093,0A8.093,8.093,0,1,1,-8.093,0A8.093,8.093,0,1,1,8.093,0" fill="#4c78a8" stroke-width="2" opacity="0.3"/><path aria-label="ROC-AUC: 0.88; ID: GSE28998; Gender: Male; Significant: false; -Log10 P value: 1.11690664142" role="graphics-symbol" aria-roledescription="circle" transform="translate(264,170)" d="M7.881,0A7.881,7.881,0,1,1,-7.881,0A7.881,7.881,0,1,1,7.881,0" fill="#f58518" stroke-width="2" opacity="0.3"/><path aria-label="ROC-AUC: 0.67; ID: GSE28998; Gender: Female; Significant: false; -Log10 P value: 0.350665141288" role="graphics-symbol" aria-roledescription="circle" transform="translate(201,170)" d="M8.423,0A8.423,8.423,0,1,1,-8.423,0A8.423,8.423,0,1,1,8.423,0" fill="#4c78a8" stroke-width="2" opacity="0.3"/><path aria-label="ROC-AUC: 0.36; ID: GSE43219; Gender: Male; Significant: false; -Log10 P value: 0.230622673924" role="graphics-symbol" aria-roledescription="circle" transform="translate(108,190)" d="M8.505,0A8.505,8.505,0,1,1,-8.505,0A8.505,8.505,0,1,1,8.505,0" fill="#f58518" stroke-width="2" opacity="0.3"/><path aria-label="ROC-AUC: 0.44; ID: GSE43219; Gender: Female; Significant: false; -Log10 P value: 0.264401100302" role="graphics-symbol" aria-roledescription="circle" transform="translate(132,190)" d="M8.482,0A8.482,8.482,0,1,1,-8.482,0A8.482,8.482,0,1,1,8.482,0" fill="#4c78a8" stroke-width="2" opacity="0.3"/><path aria-label="ROC-AUC: 0.36; ID: GSE44051; Gender: Male; Significant: false; -Log10 P value: 0.403402904374" role="graphics-symbol" aria-roledescription="circle" transform="translate(108,210)" d="M8.387,0A8.387,8.387,0,1,1,-8.387,0A8.387,8.387,0,1,1,8.387,0" fill="#f58518" stroke-width="2" opacity="0.3"/><path aria-label="ROC-AUC: 0.56; ID: GSE44051; Gender: Female; Significant: false; -Log10 P value: 0.170696227169" role="graphics-symbol" aria-roledescription="circle" transform="translate(168.00000000000003,210)" d="M8.546,0A8.546,8.546,0,1,1,-8.546,0A8.546,8.546,0,1,1,8.546,0" fill="#4c78a8" stroke-width="2" opacity="0.3"/><path aria-label="ROC-AUC: 0.55; ID: GSE60591; Gender: Male; Significant: false; -Log10 P value: 0.256490235272" role="graphics-symbol" aria-roledescription="circle" transform="translate(165,230)" d="M8.488,0A8.488,8.488,0,1,1,-8.488,0A8.488,8.488,0,1,1,8.488,0" fill="#f58518" stroke-width="2" opacity="0.3"/><path aria-label="ROC-AUC: 0.57; ID: GSE60591; Gender: Female; Significant: false; -Log10 P value: 0.505845405982" role="graphics-symbol" aria-roledescription="circle" transform="translate(170.99999999999997,230)" d="M8.316,0A8.316,8.316,0,1,1,-8.316,0A8.316,8.316,0,1,1,8.316,0" fill="#4c78a8" stroke-width="2" opacity="0.3"/><path aria-label="ROC-AUC: 0.69; ID: GSE68585; Gender: Male; Significant: false; -Log10 P value: 0.324221658326" role="graphics-symbol" aria-roledescription="circle" transform="translate(206.99999999999997,250)" d="M8.442,0A8.442,8.442,0,1,1,-8.442,0A8.442,8.442,0,1,1,8.442,0" fill="#f58518" stroke-width="2" opacity="0.3"/><path aria-label="ROC-AUC: 0.43; ID: GSE252357; Gender: Male; Significant: false; -Log10 P value: 0.369572124975" role="graphics-symbol" aria-roledescription="circle" transform="translate(129,130)" d="M8.41,0A8.41,8.41,0,1,1,-8.41,0A8.41,8.41,0,1,1,8.41,0" fill="#f58518" stroke-width="2" opacity="0.3"/><path aria-label="ROC-AUC: 0.85; ID: GSE252357; Gender: Female; Significant: true; -Log10 P value: 1.85078088734" role="graphics-symbol" aria-roledescription="circle" transform="translate(255,130)" d="M7.324,0A7.324,7.324,0,1,1,-7.324,0A7.324,7.324,0,1,1,7.324,0" fill="#4c78a8" stroke-width="2" opacity="0.8"/><path aria-label="ROC-AUC: 0.36; ID: GSE252357; Gender: Male; Significant: false; -Log10 P value: 0.378823718225" role="graphics-symbol" aria-roledescription="circle" transform="translate(108,130)" d="M8.404,0A8.404,8.404,0,1,1,-8.404,0A8.404,8.404,0,1,1,8.404,0" fill="#f58518" stroke-width="2" opacity="0.3"/><path aria-label="ROC-AUC: 0; ID: GSE252357; Gender: Female; Significant: true; -Log10 P value: 1.30803489723" role="graphics-symbol" aria-roledescription="circle" transform="translate(0,130)" d="M7.74,0A7.74,7.74,0,1,1,-7.74,0A7.74,7.74,0,1,1,7.74,0" fill="#4c78a8" stroke-width="2" opacity="0.8"/><path aria-label="ROC-AUC: 0; ID: GSE72462; Gender: Female; Significant: false; -Log10 P value: 0.718966632752" role="graphics-symbol" aria-roledescription="circle" transform="translate(0,270)" d="M8.167,0A8.167,8.167,0,1,1,-8.167,0A8.167,8.167,0,1,1,8.167,0" fill="#4c78a8" stroke-width="2" opacity="0.3"/><path aria-label="ROC-AUC: 0.57; ID: GSE83352; Gender: Male; Significant: false; -Log10 P value: 0.338187314463" role="graphics-symbol" aria-roledescription="circle" transform="translate(170.99999999999997,290)" d="M8.432,0A8.432,8.432,0,1,1,-8.432,0A8.432,8.432,0,1,1,8.432,0" fill="#f58518" stroke-width="2" opacity="0.3"/><path aria-label="ROC-AUC: 0.45; ID: GSE83352; Gender: Female; Significant: false; -Log10 P value: 0.177178354697" role="graphics-symbol" aria-roledescription="circle" transform="translate(135,290)" d="M8.541,0A8.541,8.541,0,1,1,-8.541,0A8.541,8.541,0,1,1,8.541,0" fill="#4c78a8" stroke-width="2" opacity="0.3"/><path aria-label="ROC-AUC: 0.03; ID: GSE83578; Gender: Male; Significant: true; -Log10 P value: 4.33348201945" role="graphics-symbol" aria-roledescription="circle" transform="translate(9,310)" d="M5,0A5,5,0,1,1,-5,0A5,5,0,1,1,5,0" fill="#f58518" stroke-width="2" opacity="0.8"/><path aria-label="ROC-AUC: 0.07; ID: GSE83578; Gender: Female; Significant: true; -Log10 P value: 2.48412615629" role="graphics-symbol" aria-roledescription="circle" transform="translate(21.000000000000004,310)" d="M6.807,0A6.807,6.807,0,1,1,-6.807,0A6.807,6.807,0,1,1,6.807,0" fill="#4c78a8" stroke-width="2" opacity="0.8"/><path aria-label="ROC-AUC: 0.29; ID: GSE83578; Gender: Male; Significant: true; -Log10 P value: 1.32790214206" role="graphics-symbol" aria-roledescription="circle" transform="translate(87,310)" d="M7.725,0A7.725,7.725,0,1,1,-7.725,0A7.725,7.725,0,1,1,7.725,0" fill="#f58518" stroke-width="2" opacity="0.8"/><path aria-label="ROC-AUC: 0.21; ID: GSE8479; Gender: Female; Significant: true; -Log10 P value: 1.90657831484" role="graphics-symbol" aria-roledescription="circle" transform="translate(63,330)" d="M7.28,0A7.28,7.28,0,1,1,-7.28,0A7.28,7.28,0,1,1,7.28,0" fill="#4c78a8" stroke-width="2" opacity="0.8"/></g><g class="mark-group role-legend" role="graphics-symbol" aria-roledescription="legend" aria-label="Symbol legend titled 'Gender' for fill color with 2 values: Female, Male"><g transform="translate(318,0)"><path class="background" aria-hidden="true" d="M0,0h50v40h-50Z" pointer-events="none"/><g><g class="mark-group role-legend-entry"><g transform="translate(0,16)"><path class="background" aria-hidden="true" d="M0,0h0v0h0Z" pointer-events="none"/><g><g class="mark-group role-scope" role="graphics-object" aria-roledescription="group mark container"><g transform="translate(0,0)"><path class="background" aria-hidden="true" d="M0,0h49.3447265625v11h-49.3447265625Z" pointer-events="none" opacity="1"/><g><g class="mark-symbol role-legend-symbol" pointer-events="none"><path transform="translate(6,6)" d="M5,0A5,5,0,1,1,-5,0A5,5,0,1,1,5,0" fill="#4c78a8" stroke-width="1.5" opacity="0.7"/></g><g class="mark-text role-legend-label" pointer-events="none"><text text-anchor="start" transform="translate(16,9)" font-family="sans-serif" font-size="10px" fill="#000" opacity="1">Female</text></g></g><path class="foreground" aria-hidden="true" d="" pointer-events="none" display="none"/></g><g transform="translate(0,13)"><path class="background" aria-hidden="true" d="M0,0h49.3447265625v11h-49.3447265625Z" pointer-events="none" opacity="1"/><g><g class="mark-symbol role-legend-symbol" pointer-events="none"><path transform="translate(6,6)" d="M5,0A5,5,0,1,1,-5,0A5,5,0,1,1,5,0" fill="#f58518" stroke-width="1.5" opacity="0.7"/></g><g class="mark-text role-legend-label" pointer-events="none"><text text-anchor="start" transform="translate(16,9)" font-family="sans-serif" font-size="10px" fill="#000" opacity="1">Male</text></g></g><path class="foreground" aria-hidden="true" d="" pointer-events="none" display="none"/></g></g></g><path class="foreground" aria-hidden="true" d="" pointer-events="none" display="none"/></g></g><g class="mark-text role-legend-title" pointer-events="none"><text text-anchor="start" transform="translate(0,9)" font-family="sans-serif" font-size="11px" font-weight="bold" fill="#000" opacity="1">Gender</text></g></g><path class="foreground" aria-hidden="true" d="" pointer-events="none" display="none"/></g></g><g class="mark-group role-legend" role="graphics-symbol" aria-roledescription="legend" aria-label="Symbol legend titled '-Log10 P value' for size with values from 0 to 4"><g transform="translate(318,48)"><path class="background" aria-hidden="true" d="M0,0h78v74h-78Z" pointer-events="none"/><g><g class="mark-group role-legend-entry"><g transform="translate(0,16)"><path class="background" aria-hidden="true" d="M0,0h0v0h0Z" pointer-events="none"/><g><g class="mark-group role-scope" role="graphics-object" aria-roledescription="group mark container"><g transform="translate(0,0)"><path class="background" aria-hidden="true" d="M0,0h33.3642578125v19.66025403784439h-33.3642578125Z" pointer-events="none" opacity="1"/><g><g class="mark-symbol role-legend-symbol" pointer-events="none"><path transform="translate(0,9.5)" d="M8.66,0A8.66,8.66,0,1,1,-8.66,0A8.66,8.66,0,1,1,8.66,0" fill="black" fill-opacity="0.7" stroke-width="1.5" opacity="0.7"/></g><g class="mark-text role-legend-label" pointer-events="none"><text text-anchor="start" transform="translate(0,12.5)" font-family="sans-serif" font-size="10px" fill="#000" opacity="1">0 – 5</text></g></g><path class="foreground" aria-hidden="true" d="" pointer-events="none" display="none"/></g><g transform="translate(0,23)"><path class="background" aria-hidden="true" d="M0,0h33.3642578125v10.660489368884093h-33.3642578125Z" pointer-events="none" opacity="1"/><g><g class="mark-symbol role-legend-symbol" pointer-events="none"><path transform="translate(0,5)" d="M4.16,0A4.16,4.16,0,1,1,-4.16,0A4.16,4.16,0,1,1,4.16,0" fill="black" fill-opacity="0.7" stroke-width="1.5" opacity="0.7"/></g><g class="mark-text role-legend-label" pointer-events="none"><text text-anchor="start" transform="translate(0,8)" font-family="sans-serif" font-size="10px" fill="#000" opacity="1">5 – 10</text></g></g><path class="foreground" aria-hidden="true" d="" pointer-events="none" display="none"/></g><g transform="translate(0,41)"><path class="background" aria-hidden="true" d="M0,0h33.3642578125v5h-33.3642578125Z" pointer-events="none" opacity="1"/><g><g class="mark-symbol role-legend-symbol" pointer-events="none"><path transform="translate(0,0)" d="MNaN,0" fill="black" fill-opacity="0.7" stroke-width="1.5" opacity="0.7"/></g><g class="mark-text role-legend-label" pointer-events="none"><text text-anchor="start" transform="translate(0,3)" font-family="sans-serif" font-size="10px" fill="#000" opacity="1">10 – 15</text></g></g><path class="foreground" aria-hidden="true" d="" pointer-events="none" display="none"/></g><g transform="translate(0,53)"><path class="background" aria-hidden="true" d="M0,0h33.3642578125v5h-33.3642578125Z" pointer-events="none" opacity="1"/><g><g class="mark-symbol role-legend-symbol" pointer-events="none"><path transform="translate(0,0)" d="MNaN,0" fill="black" fill-opacity="0.7" stroke-width="1.5" opacity="0.7"/></g><g class="mark-text role-legend-label" pointer-events="none"><text text-anchor="start" transform="translate(0,3)" font-family="sans-serif" font-size="10px" fill="#000" opacity="1">15 – 20</text></g></g><path class="foreground" aria-hidden="true" d="" pointer-events="none" display="none"/></g></g></g><path class="foreground" aria-hidden="true" d="" pointer-events="none" display="none"/></g></g><g class="mark-text role-legend-title" pointer-events="none"><text text-anchor="start" transform="translate(0,9)" font-family="sans-serif" font-size="11px" font-weight="bold" fill="#000" opacity="1">-Log10 P value</text></g></g><path class="foreground" aria-hidden="true" d="" pointer-events="none" display="none"/></g></g><g class="mark-group role-legend" role="graphics-symbol" aria-roledescription="legend" aria-label="Symbol legend titled 'Significant' for opacity with 2 values: false, true"><g transform="translate(318,130)"><path class="background" aria-hidden="true" d="M0,0h57v45h-57Z" pointer-events="none"/><g><g class="mark-group role-legend-entry"><g transform="translate(0,16)"><path class="background" aria-hidden="true" d="M0,0h0v0h0Z" pointer-events="none"/><g><g class="mark-group role-scope" role="graphics-object" aria-roledescription="group mark container"><g transform="translate(0,0)"><path class="background" aria-hidden="true" d="M0,0h37.123046875v12.5h-37.123046875Z" pointer-events="none" opacity="1"/><g><g class="mark-symbol role-legend-symbol" pointer-events="none"><path transform="translate(6,6)" d="M5,0A5,5,0,1,1,-5,0A5,5,0,1,1,5,0" fill="black" fill-opacity="0.7" stroke-width="1.5" opacity="0.3"/></g><g class="mark-text role-legend-label" pointer-events="none"><text text-anchor="start" transform="translate(16,9)" font-family="sans-serif" font-size="10px" fill="#000" opacity="1">false</text></g></g><path class="foreground" aria-hidden="true" d="" pointer-events="none" display="none"/></g><g transform="translate(0,16)"><path class="background" aria-hidden="true" d="M0,0h37.123046875v12.5h-37.123046875Z" pointer-events="none" opacity="1"/><g><g class="mark-symbol role-legend-symbol" pointer-events="none"><path transform="translate(6,6)" d="M5,0A5,5,0,1,1,-5,0A5,5,0,1,1,5,0" fill="black" fill-opacity="0.7" stroke-width="1.5" opacity="0.8"/></g><g class="mark-text role-legend-label" pointer-events="none"><text text-anchor="start" transform="translate(16,9)" font-family="sans-serif" font-size="10px" fill="#000" opacity="1">true</text></g></g><path class="foreground" aria-hidden="true" d="" pointer-events="none" display="none"/></g></g></g><path class="foreground" aria-hidden="true" d="" pointer-events="none" display="none"/></g></g><g class="mark-text role-legend-title" pointer-events="none"><text text-anchor="start" transform="translate(0,9)" font-family="sans-serif" font-size="11px" font-weight="bold" fill="#000" opacity="1">Significant</text></g></g><path class="foreground" aria-hidden="true" d="" pointer-events="none" display="none"/></g></g><g class="mark-group role-title"><g transform="translate(150,-17)"><path class="background" aria-hidden="true" d="M0,0h0v0h0Z" pointer-events="none"/><g><g class="mark-text role-title-text" role="graphics-symbol" aria-roledescription="title" aria-label="Title text 'Macrophage Exercise Scores Genders'" pointer-events="none"><text text-anchor="middle" transform="translate(0,10)" font-family="sans-serif" font-size="13px" font-weight="bold" fill="#000" opacity="1">Macrophage Exercise Scores Genders</text></g></g><path class="foreground" aria-hidden="true" d="" pointer-events="none" display="none"/></g></g></g><path class="foreground" aria-hidden="true" d="" display="none"/></g></g></g></svg>